  0
SECTION
  2
HEADER
  9
$ACADVER
  1
AC1015
  9
$ACADMAINTVER
 70
     6
  9
$DWGCODEPAGE
  3
ANSI_1252
  9
$INSBASE
 10
0.0
 20
0.0
 30
0.0
  9
$EXTMIN
 10
-5.1769776537
 20
-3.1517592464
 30
0.0
  9
$EXTMAX
 10
5.4220060585
 20
10.3719463231
 30
0.0
  9
$LIMMIN
 10
0.0
 20
0.0
  9
$LIMMAX
 10
12.0
 20
9.0
  9
$ORTHOMODE
 70
     0
  9
$REGENMODE
 70
     1
  9
$FILLMODE
 70
     1
  9
$QTEXTMODE
 70
     0
  9
$MIRRTEXT
 70
     1
  9
$LTSCALE
 40
1.0
  9
$ATTMODE
 70
     1
  9
$TEXTSIZE
 40
0.1377952756
  9
$TRACEWID
 40
0.05
  9
$TEXTSTYLE
  7
Standard
  9
$CLAYER
  8
0
  9
$CELTYPE
  6
ByLayer
  9
$CECOLOR
 62
   256
  9
$CELTSCALE
 40
1.0
  9
$DISPSILH
 70
     0
  9
$DIMSCALE
 40
1.0
  9
$DIMASZ
 40
0.13
  9
$DIMEXO
 40
0.0
  9
$DIMDLI
 40
0.38
  9
$DIMRND
 40
0.0
  9
$DIMDLE
 40
0.0
  9
$DIMEXE
 40
0.0393700787
  9
$DIMTP
 40
0.0
  9
$DIMTM
 40
0.0
  9
$DIMTXT
 40
0.1377952756
  9
$DIMCEN
 40
0.09
  9
$DIMTSZ
 40
0.0
  9
$DIMTOL
 70
     0
  9
$DIMLIM
 70
     0
  9
$DIMTIH
 70
     1
  9
$DIMTOH
 70
     1
  9
$DIMSE1
 70
     0
  9
$DIMSE2
 70
     0
  9
$DIMTAD
 70
     1
  9
$DIMZIN
 70
     1
  9
$DIMBLK
  1

  9
$DIMASO
 70
     1
  9
$DIMSHO
 70
     1
  9
$DIMPOST
  1

  9
$DIMAPOST
  1

  9
$DIMALT
 70
     0
  9
$DIMALTD
 70
     2
  9
$DIMALTF
 40
25.4
  9
$DIMLFAC
 40
1.0
  9
$DIMTOFL
 70
     0
  9
$DIMTVP
 40
0.0
  9
$DIMTIX
 70
     0
  9
$DIMSOXD
 70
     0
  9
$DIMSAH
 70
     0
  9
$DIMBLK1
  1

  9
$DIMBLK2
  1

  9
$DIMSTYLE
  2
Standard
  9
$DIMCLRD
 70
     0
  9
$DIMCLRE
 70
     0
  9
$DIMCLRT
 70
     0
  9
$DIMTFAC
 40
1.0
  9
$DIMGAP
 40
0.06
  9
$DIMJUST
 70
     0
  9
$DIMSD1
 70
     0
  9
$DIMSD2
 70
     0
  9
$DIMTOLJ
 70
     1
  9
$DIMTZIN
 70
     1
  9
$DIMALTZ
 70
     0
  9
$DIMALTTZ
 70
     0
  9
$DIMUPT
 70
     0
  9
$DIMDEC
 70
     2
  9
$DIMTDEC
 70
     2
  9
$DIMALTU
 70
     2
  9
$DIMALTTD
 70
     2
  9
$DIMTXSTY
  7
Standard
  9
$DIMAUNIT
 70
     0
  9
$DIMADEC
 70
     2
  9
$DIMALTRND
 40
0.0
  9
$DIMAZIN
 70
     0
  9
$DIMDSEP
 70
    46
  9
$DIMATFIT
 70
     3
  9
$DIMFRAC
 70
     0
  9
$DIMLDRBLK
  1

  9
$DIMLUNIT
 70
     2
  9
$DIMLWD
 70
    -2
  9
$DIMLWE
 70
    -2
  9
$DIMTMOVE
 70
     0
  9
$LUNITS
 70
     2
  9
$LUPREC
 70
     3
  9
$SKETCHINC
 40
0.1
  9
$FILLETRAD
 40
0.0
  9
$AUNITS
 70
     0
  9
$AUPREC
 70
     2
  9
$MENU
  1
.
  9
$ELEVATION
 40
0.0
  9
$PELEVATION
 40
0.0
  9
$THICKNESS
 40
0.0
  9
$LIMCHECK
 70
     0
  9
$CHAMFERA
 40
0.0
  9
$CHAMFERB
 40
0.0
  9
$CHAMFERC
 40
0.0
  9
$CHAMFERD
 40
0.0
  9
$SKPOLY
 70
     0
  9
$TDCREATE
 40
2460416.56696963
  9
$TDUCREATE
 40
2460416.775302963
  9
$TDUPDATE
 40
2460416.567033854
  9
$TDUUPDATE
 40
2460416.775367187
  9
$TDINDWG
 40
0.0000000116
  9
$TDUSRTIMER
 40
0.0000000116
  9
$USRTIMER
 70
     1
  9
$ANGBASE
 50
0.0
  9
$ANGDIR
 70
     0
  9
$PDMODE
 70
     0
  9
$PDSIZE
 40
-1.0
  9
$PLINEWID
 40
0.0
  9
$SPLFRAME
 70
     0
  9
$SPLINETYPE
 70
     6
  9
$SPLINESEGS
 70
     8
  9
$HANDSEED
  5
1E8
  9
$SURFTAB1
 70
     6
  9
$SURFTAB2
 70
     6
  9
$SURFTYPE
 70
     6
  9
$SURFU
 70
     6
  9
$SURFV
 70
     6
  9
$UCSBASE
  2

  9
$UCSNAME
  2

  9
$UCSORG
 10
0.0
 20
0.0
 30
0.0
  9
$UCSXDIR
 10
1.0
 20
0.0
 30
0.0
  9
$UCSYDIR
 10
0.0
 20
1.0
 30
0.0
  9
$UCSORTHOREF
  2

  9
$UCSORTHOVIEW
 70
     0
  9
$UCSORGTOP
 10
0.0
 20
0.0
 30
0.0
  9
$UCSORGBOTTOM
 10
0.0
 20
0.0
 30
0.0
  9
$UCSORGLEFT
 10
0.0
 20
0.0
 30
0.0
  9
$UCSORGRIGHT
 10
0.0
 20
0.0
 30
0.0
  9
$UCSORGFRONT
 10
0.0
 20
0.0
 30
0.0
  9
$UCSORGBACK
 10
0.0
 20
0.0
 30
0.0
  9
$PUCSBASE
  2

  9
$PUCSNAME
  2

  9
$PUCSORG
 10
0.0
 20
0.0
 30
0.0
  9
$PUCSXDIR
 10
1.0
 20
0.0
 30
0.0
  9
$PUCSYDIR
 10
0.0
 20
1.0
 30
0.0
  9
$PUCSORTHOREF
  2

  9
$PUCSORTHOVIEW
 70
     0
  9
$PUCSORGTOP
 10
0.0
 20
0.0
 30
0.0
  9
$PUCSORGBOTTOM
 10
0.0
 20
0.0
 30
0.0
  9
$PUCSORGLEFT
 10
0.0
 20
0.0
 30
0.0
  9
$PUCSORGRIGHT
 10
0.0
 20
0.0
 30
0.0
  9
$PUCSORGFRONT
 10
0.0
 20
0.0
 30
0.0
  9
$PUCSORGBACK
 10
0.0
 20
0.0
 30
0.0
  9
$USERI1
 70
     0
  9
$USERI2
 70
     0
  9
$USERI3
 70
     0
  9
$USERI4
 70
     0
  9
$USERI5
 70
     0
  9
$USERR1
 40
0.0
  9
$USERR2
 40
0.0
  9
$USERR3
 40
0.0
  9
$USERR4
 40
0.0
  9
$USERR5
 40
0.0
  9
$WORLDVIEW
 70
     1
  9
$SHADEDGE
 70
     3
  9
$SHADEDIF
 70
    70
  9
$TILEMODE
 70
     1
  9
$MAXACTVP
 70
    64
  9
$PINSBASE
 10
0.0
 20
0.0
 30
0.0
  9
$PLIMCHECK
 70
     0
  9
$PEXTMIN
 10
1.0000000000E+20
 20
1.0000000000E+20
 30
1.0000000000E+20
  9
$PEXTMAX
 10
-1.0000000000E+20
 20
-1.0000000000E+20
 30
-1.0000000000E+20
  9
$PLIMMIN
 10
0.0
 20
0.0
  9
$PLIMMAX
 10
12.0
 20
9.0
  9
$UNITMODE
 70
     0
  9
$VISRETAIN
 70
     1
  9
$PLINEGEN
 70
     0
  9
$PSLTSCALE
 70
     1
  9
$TREEDEPTH
 70
  3020
  9
$CMLSTYLE
  2
Standard
  9
$CMLJUST
 70
     0
  9
$CMLSCALE
 40
1.0
  9
$PROXYGRAPHICS
 70
     1
  9
$MEASUREMENT
 70
     0
  9
$CELWEIGHT
370
    -1
  9
$ENDCAPS
280
     0
  9
$JOINSTYLE
280
     0
  9
$LWDISPLAY
290
     1
  9
$INSUNITS
 70
     1
  9
$HYPERLINKBASE
  1

  9
$STYLESHEET
  1

  9
$XEDIT
290
     1
  9
$CEPSNTYPE
380
     0
  9
$PSTYLEMODE
290
     1
  9
$FINGERPRINTGUID
  2
{85fd17e6-6a92-492e-8795-c16673d34f8e}
  9
$VERSIONGUID
  2
{FAEB1C32-E019-11D5-929B-00C0DF256EC4}
  9
$EXTNAMES
290
     1
  9
$PSVPSCALE
 40
0.0
  9
$OLESTARTUP
290
     0
  0
ENDSEC
  0
SECTION
  2
CLASSES
  0
CLASS
  1
ACDBDICTIONARYWDFLT
  2
AcDbDictionaryWithDefault
  3
ObjectDBX Classes
 90
        0
280
     0
281
     0
  0
CLASS
  1
VISUALSTYLE
  2
AcDbVisualStyle
  3
ObjectDBX Classes
 90
     4095
280
     0
281
     0
  0
CLASS
  1
MATERIAL
  2
AcDbMaterial
  3
ObjectDBX Classes
 90
     1153
280
     0
281
     0
  0
CLASS
  1
SCALE
  2
AcDbScale
  3
ObjectDBX Classes
 90
     1153
280
     0
281
     0
  0
CLASS
  1
TABLESTYLE
  2
AcDbTableStyle
  3
ObjectDBX Classes
 90
     4095
280
     0
281
     0
  0
CLASS
  1
MLEADERSTYLE
  2
AcDbMLeaderStyle
  3
ACDB_MLEADERSTYLE_CLASS
 90
     4095
280
     0
281
     0
  0
CLASS
  1
SUN
  2
AcDbSun
  3
SCENEOE
 90
     1153
280
     0
281
     0
  0
CLASS
  1
ACDBPLACEHOLDER
  2
AcDbPlaceHolder
  3
ObjectDBX Classes
 90
        0
280
     0
281
     0
  0
CLASS
  1
LAYOUT
  2
AcDbLayout
  3
ObjectDBX Classes
 90
        0
280
     0
281
     0
  0
ENDSEC
  0
SECTION
  2
TABLES
  0
TABLE
  2
VPORT
  5
8
330
0
100
AcDbSymbolTable
 70
     1
  0
VPORT
  5
29
330
8
100
AcDbSymbolTableRecord
100
AcDbViewportTableRecord
  2
*Active
 70
     0
 10
0.0
 20
0.0
 11
1.0
 21
1.0
 12
0.1225142024
 22
3.6100935383
 13
0.0
 23
0.0
 14
0.5
 24
0.5
 15
0.5
 25
0.5
 16
0.0
 26
0.0
 36
1.0
 17
0.0
 27
0.0
 37
0.0
 40
13.7941796809
 41
0.7837336932
 42
50.0
 43
0.0
 44
0.0
 50
0.0
 51
0.0
 71
     0
 72
   100
 73
     1
 74
     3
 75
     0
 76
     0
 77
     0
 78
     0
281
     0
 65
     1
110
0.0
120
0.0
130
0.0
111
1.0
121
0.0
131
0.0
112
0.0
122
1.0
132
0.0
 79
     0
146
0.0
  0
ENDTAB
  0
TABLE
  2
LTYPE
  5
5
330
0
100
AcDbSymbolTable
 70
     6
  0
LTYPE
  5
14
330
5
100
AcDbSymbolTableRecord
100
AcDbLinetypeTableRecord
  2
ByBlock
 70
     0
  3

 72
    65
 73
     0
 40
0.0
  0
LTYPE
  5
15
330
5
100
AcDbSymbolTableRecord
100
AcDbLinetypeTableRecord
  2
ByLayer
 70
     0
  3

 72
    65
 73
     0
 40
0.0
  0
LTYPE
  5
16
330
5
100
AcDbSymbolTableRecord
100
AcDbLinetypeTableRecord
  2
Continuous
 70
     0
  3
Solid line
 72
    65
 73
     0
 40
0.0
  0
LTYPE
  5
5E
330
5
100
AcDbSymbolTableRecord
100
AcDbLinetypeTableRecord
  2
HIDDEN
 70
     0
  3
Hidden __ __ __ __ __ __ __ __ __ __ __ __ __ __
 72
    65
 73
     2
 40
0.075
 49
0.05
 74
     0
 49
-0.025
 74
     0
  0
LTYPE
  5
5F
330
5
100
AcDbSymbolTableRecord
100
AcDbLinetypeTableRecord
  2
PHANTOM
 70
     0
  3
Phantom ______  __  __  ______  __  __  ______
 72
    65
 73
     6
 40
0.5
 49
0.25
 74
     0
 49
-0.05
 74
     0
 49
0.05
 74
     0
 49
-0.05
 74
     0
 49
0.05
 74
     0
 49
-0.05
 74
     0
  0
LTYPE
  5
60
330
5
100
AcDbSymbolTableRecord
100
AcDbLinetypeTableRecord
  2
CENTER
 70
     0
  3
Center ____ _ ____ _ ____ _ ____ _ ____ _ ____
 72
    65
 73
     4
 40
0.4
 49
0.25
 74
     0
 49
-0.05
 74
     0
 49
0.05
 74
     0
 49
-0.05
 74
     0
  0
LTYPE
  5
61
330
5
100
AcDbSymbolTableRecord
100
AcDbLinetypeTableRecord
  2
CENTERX2
 70
     0
  3
Center (2x) ________  __  ________  __  _____
 72
    65
 73
     4
 40
0.8
 49
0.5
 74
     0
 49
-0.1
 74
     0
 49
0.1
 74
     0
 49
-0.1
 74
     0
  0
LTYPE
  5
62
330
5
100
AcDbSymbolTableRecord
100
AcDbLinetypeTableRecord
  2
DOT2
 70
     0
  3
Dot (.5x) ........................................
 72
    65
 73
     2
 40
0.025
 49
0.0
 74
     0
 49
-0.025
 74
     0
  0
ENDTAB
  0
TABLE
  2
LAYER
  5
2
330
0
100
AcDbSymbolTable
 70
     1
  0
LAYER
  5
10
330
2
100
AcDbSymbolTableRecord
100
AcDbLayerTableRecord
  2
0
 70
     0
 62
     7
  6
Continuous
370
    -3
390
F
  0
ENDTAB
  0
TABLE
  2
STYLE
  5
3
330
0
100
AcDbSymbolTable
 70
     2
  0
STYLE
  5
11
330
3
100
AcDbSymbolTableRecord
100
AcDbTextStyleTableRecord
  2
Standard
 70
     0
 40
0.0
 41
1.0
 50
0.0
 71
     0
 42
0.1377952756
  3
txt
  4

  0
STYLE
  5
1E4
330
3
100
AcDbSymbolTableRecord
100
AcDbTextStyleTableRecord
  2
SLDTEXTSTYLE0
 70
     0
 40
0.0
 41
0.7
 50
0.0
 71
     0
 42
0.1377952756
  3
TXT
  4

  0
ENDTAB
  0
TABLE
  2
VIEW
  5
6
330
0
100
AcDbSymbolTable
 70
     0
  0
ENDTAB
  0
TABLE
  2
UCS
  5
7
330
0
100
AcDbSymbolTable
 70
     0
  0
ENDTAB
  0
TABLE
  2
APPID
  5
9
330
0
100
AcDbSymbolTable
 70
     1
  0
APPID
  5
12
330
9
100
AcDbSymbolTableRecord
100
AcDbRegAppTableRecord
  2
ACAD
 70
     0
  0
ENDTAB
  0
TABLE
  2
DIMSTYLE
  5
A
330
0
100
AcDbSymbolTable
 70
     1
100
AcDbDimStyleTable
  0
DIMSTYLE
105
27
330
A
100
AcDbSymbolTableRecord
100
AcDbDimStyleTableRecord
  2
Standard
 70
     0
178
     0
340
11
  0
ENDTAB
  0
TABLE
  2
BLOCK_RECORD
  5
1
330
0
100
AcDbSymbolTable
 70
     1
  0
BLOCK_RECORD
  5
1F
330
1
100
AcDbSymbolTableRecord
100
AcDbBlockTableRecord
  2
*Model_Space
340
22
  0
BLOCK_RECORD
  5
1B
330
1
100
AcDbSymbolTableRecord
100
AcDbBlockTableRecord
  2
*Paper_Space
340
1E
  0
BLOCK_RECORD
  5
23
330
1
100
AcDbSymbolTableRecord
100
AcDbBlockTableRecord
  2
*Paper_Space0
340
26
  0
ENDTAB
  0
ENDSEC
  0
SECTION
  2
BLOCKS
  0
BLOCK
  5
20
330
1F
100
AcDbEntity
  8
0
100
AcDbBlockBegin
  2
*Model_Space
 70
     0
 10
0.0
 20
0.0
 30
0.0
  3
*Model_Space
  1

  0
ENDBLK
  5
21
330
1F
100
AcDbEntity
  8
0
100
AcDbBlockEnd
  0
BLOCK
  5
1C
330
1B
100
AcDbEntity
 67
     1
  8
0
100
AcDbBlockBegin
  2
*Paper_Space
 70
     0
 10
0.0
 20
0.0
 30
0.0
  3
*Paper_Space
  1

  0
ENDBLK
  5
1D
330
1B
100
AcDbEntity
 67
     1
  8
0
100
AcDbBlockEnd
  0
BLOCK
  5
24
330
23
100
AcDbEntity
  8
0
100
AcDbBlockBegin
  2
*Paper_Space0
 70
     0
 10
0.0
 20
0.0
 30
0.0
  3
*Paper_Space0
  1

  0
ENDBLK
  5
25
330
23
100
AcDbEntity
  8
0
100
AcDbBlockEnd
  0
ENDSEC
  0
SECTION
  2
ENTITIES
  0
LWPOLYLINE
  5
67
330
1F
100
AcDbEntity
  8
0
  6
Continuous
 62
     7
370
    25
100
AcDbPolyline
 90
       30
 70
   128
 43
0.0
 10
1.2122039975
 20
-2.9475754923
 10
1.3951115815
 20
-2.9898978426
 10
1.5808737713
 20
-3.0214247255
 10
1.7687440638
 20
-3.042029447
 10
1.9579674847
 20
-3.0516292051
 10
2.1477836217
 20
-3.0501854225
 10
2.3374296807
 20
-3.0377039009
 10
2.5261435511
 20
-3.0142347986
 10
2.7131668684
 20
-2.9798724284
 10
2.8977480616
 20
-2.9347548788
 10
3.0791453738
 20
-2.8790634588
 10
3.2566298428
 20
-2.8130219697
 10
3.4294882305
 20
-2.7368958055
 10
3.5970258889
 20
-2.6509908863
 10
3.7585695524
 20
-2.5556524292
 10
3.9134700422
 20
-2.4512635609
 10
4.0611048763
 20
-2.3382437778
 10
4.20088077
 20
-2.2170472606
 10
4.3322360208
 20
-2.088161049
 10
4.454642765
 20
-1.9521030844
 10
4.5676090997
 20
-1.8094201286
 10
4.670681059
 20
-1.6606855666
 10
4.7634444383
 20
-1.5064971022
 10
4.8455264594
 20
-1.3474743564
 10
4.9165972679
 20
-1.1842563771
 10
4.976371259
 20
-1.0174990712
 10
5.0246082252
 20
-0.8478725687
 10
5.0611143218
 20
-0.6760585297
 10
5.0857428455
 20
-0.5027474052
 10
5.0983948243
 20
-0.3286356624
  0
LWPOLYLINE
  5
68
330
1F
100
AcDbEntity
  8
0
  6
Continuous
 62
     7
370
    25
100
AcDbPolyline
 90
       30
 70
   128
 43
0.0
 10
1.2269635444
 20
-3.0477055336
 10
1.4098711284
 20
-3.0900278839
 10
1.5956333182
 20
-3.1215547667
 10
1.7835036107
 20
-3.1421594882
 10
1.9727270316
 20
-3.1517592464
 10
2.1625431686
 20
-3.1503154637
 10
2.3521892276
 20
-3.1378339422
 10
2.540903098
 20
-3.1143648399
 10
2.7279264153
 20
-3.0800024697
 10
2.9125076085
 20
-3.03488492
 10
3.0939049207
 20
-2.9791935
 10
3.2713893897
 20
-2.913152011
 10
3.4442477774
 20
-2.8370258467
 10
3.6117854358
 20
-2.7511209276
 10
3.7733290993
 20
-2.6557824705
 10
3.9282295891
 20
-2.5513936022
 10
4.0758644232
 20
-2.438373819
 10
4.2156403169
 20
-2.3171773019
 10
4.3469955677
 20
-2.1882910902
 10
4.4694023119
 20
-2.0522331256
 10
4.5823686466
 20
-1.9095501699
 10
4.6854406059
 20
-1.7608156078
 10
4.7782039852
 20
-1.6066271434
 10
4.8602860063
 20
-1.4476043976
 10
4.9313568148
 20
-1.2843864183
 10
4.9911308059
 20
-1.1176291124
 10
5.0393677721
 20
-0.9480026099
 10
5.0758738687
 20
-0.776188571
 10
5.1005023924
 20
-0.6028774465
 10
5.1131543712
 20
-0.4287657036
  0
LWPOLYLINE
  5
6B
330
1F
100
AcDbEntity
  8
0
  6
Continuous
 62
     7
370
    25
100
AcDbPolyline
 90
       30
 70
   128
 43
0.0
 10
-4.7022577248
 20
2.2490652164
 10
-4.7997128855
 20
2.0972578289
 10
-4.8866493654
 20
1.9403345186
 10
-4.962717802
 20
1.7789258969
 10
-5.0276125073
 20
1.6136805994
 10
-5.0810726956
 20
1.4452626801
 10
-5.1228835321
 20
1.2743489423
 10
-5.1528769961
 20
1.101626219
 10
-5.1709325559
 20
0.9277886128
 10
-5.1769776537
 20
0.7535347065
 10
-5.1709879965
 20
0.579564756
 10
-5.1529876545
 20
0.4065778759
 10
-5.1230489636
 20
0.2352692304
 10
-5.0812922354
 20
0.0663272394
 10
-5.0278852732
 20
-0.0995691876
 10
-4.9630426979
 20
-0.2617533803
 10
-4.8870250855
 20
-0.419573586
 10
-4.8001379201
 20
-0.5723955894
 10
-4.7027303658
 20
-0.7196052608
 10
-4.5951938642
 20
-0.8606110242
 10
-4.4779605609
 20
-0.9948462346
 10
-4.351501569
 20
-1.1217714552
 10
-4.2163250758
 20
-1.240876625
 10
-4.0729743009
 20
-1.3516831085
 10
-3.922025313
 20
-1.4537456194
 10
-3.7640847149
 20
-1.5466540099
 10
-3.5997872057
 20
-1.6300349189
 10
-3.4297930305
 20
-1.7035532722
 10
-3.254785327
 20
-1.7669136294
 10
-3.0754673802
 20
-1.8198613709
  0
LWPOLYLINE
  5
75
330
1F
100
AcDbEntity
  8
0
  6
Continuous
 62
     7
370
    25
100
AcDbPolyline
 90
       34
 70
   128
 43
0.0
 10
1.14666777
 20
7.9138754347
 10
1.1142829838
 20
7.7992434228
 10
1.093840424
 20
7.6825857101
 10
1.0855252216
 20
7.5649587669
 10
1.0894126803
 20
7.4474278409
 10
1.1054675948
 20
7.3310573104
 10
1.1335445693
 20
7.216901045
 10
1.1733893343
 20
7.1059928615
 10
1.2246410494
 20
6.9993371615
 10
1.2868355713
 20
6.8978998357
 10
1.3594096566
 20
6.8025995161
 10
1.4417060633
 20
6.7142992572
 10
1.5329795022
 20
6.6337987198
 10
1.6324033871
 20
6.5618269292
 10
1.7390773198
 20
6.4990356732
 10
1.8520352447
 20
6.445993599
 10
1.9702541972
 20
6.4031810639
 10
2.0926635684
 20
6.3709857849
 10
2.2181547999
 20
6.3496993273
 10
2.3455914237
 20
6.3395144647
 10
2.473819354
 20
6.3405234327
 10
2.6016773389
 20
6.352717094
 10
2.7280074766
 20
6.3759850208
 10
2.8516657018
 20
6.4101164952
 10
2.9715321465
 20
6.4548024174
 10
3.0865212816
 20
6.5096381046
 10
3.1955917477
 20
6.5741269564
 10
3.2977557858
 20
6.6476849518
 10
3.3920881824
 20
6.7296459382
 10
3.4777346489
 20
6.8192676641
 10
3.5539195576
 20
6.9157385014
 10
3.6199529661
 20
7.0181847953
 10
3.6752368656
 20
7.1256787761
 10
3.7192705967
 20
7.2372469618
  0
LWPOLYLINE
  5
7E
330
1F
100
AcDbEntity
  8
0
  6
Continuous
 62
     7
370
    25
100
AcDbPolyline
 90
       19
 70
   128
 43
0.0
 10
-2.2119857398
 20
0.73605995
 10
-2.177601852
 20
0.7328040219
 10
-2.1437738365
 20
0.7405712148
 10
-2.1145818511
 20
0.7584246906
 10
-2.0935468803
 20
0.7842110567
 10
-2.0832060518
 20
0.8148200966
 10
-2.0848066222
 20
0.8465599086
 10
-2.0981555391
 20
0.8756022027
 10
-2.1216427261
 20
0.8984440498
 10
-2.1524352818
 20
0.912330386
 10
-2.1868191696
 20
0.9155863141
 10
-2.2206471851
 20
0.9078191212
 10
-2.2498391704
 20
0.8899656454
 10
-2.2708741413
 20
0.8641792793
 10
-2.2812149698
 20
0.8335702393
 10
-2.2796143994
 20
0.8018304274
 10
-2.2662654825
 20
0.7727881332
 10
-2.2427782955
 20
0.7499462862
 10
-2.2119857398
 20
0.73605995
  0
LWPOLYLINE
  5
7F
330
1F
100
AcDbEntity
  8
0
  6
Continuous
 62
     7
370
    25
100
AcDbPolyline
 90
       19
 70
   128
 43
0.0
 10
-1.1194324303
 20
2.4345598798
 10
-1.0850485425
 20
2.4313039517
 10
-1.051220527
 20
2.4390711446
 10
-1.0220285417
 20
2.4569246204
 10
-1.0009935708
 20
2.4827109864
 10
-0.9906527423
 20
2.5133200264
 10
-0.9922533127
 20
2.5450598384
 10
-1.0056022296
 20
2.5741021325
 10
-1.0290894166
 20
2.5969439796
 10
-1.0598819723
 20
2.6108303157
 10
-1.0942658601
 20
2.6140862438
 10
-1.1280938756
 20
2.6063190509
 10
-1.157285861
 20
2.5884655751
 10
-1.1783208319
 20
2.5626792091
 10
-1.1886616604
 20
2.5320701691
 10
-1.18706109
 20
2.5003303572
 10
-1.1737121731
 20
2.471288063
 10
-1.150224986
 20
2.4484462159
 10
-1.1194324303
 20
2.4345598798
  0
LWPOLYLINE
  5
87
330
1F
100
AcDbEntity
  8
0
  6
Continuous
 62
     7
370
    25
100
AcDbPolyline
 90
       39
 70
   128
 43
0.0
 10
-1.9916946237
 20
3.1119878001
 10
-2.1680858752
 20
3.1144479472
 10
-2.3445478071
 20
3.1054475451
 10
-2.5201973944
 20
3.0850316322
 10
-2.694155677
 20
3.053302371
 10
-2.8655521582
 20
3.0104185363
 10
-3.0335291606
 20
2.9565947212
 10
-3.1972461184
 20
2.8921002629
 10
-3.3558837828
 20
2.8172578953
 10
-3.5086483225
 20
2.7324421337
 10
-3.6547752954
 20
2.6380774006
 10
-3.7935334741
 20
2.5346359024
 10
-3.9242285053
 20
2.4226352658
 10
-4.0462063839
 20
2.3026359483
 10
-4.1588567259
 20
2.1752384328
 10
-4.261615823
 20
2.0410802235
 10
-4.353969463
 20
1.9008326553
 10
-4.4354555033
 20
1.7551975347
 10
-4.5056661833
 20
1.6049036277
 10
-4.5642501651
 20
1.4507030132
 10
-4.6109142911
 20
1.2933673194
 10
-4.6454250515
 20
1.1336838627
 10
-4.6676097526
 20
0.9724517078
 10
-4.6773573811
 20
0.8104776691
 10
-4.6746191591
 20
0.6485722735
 10
-4.659408789
 20
0.4875457044
 10
-4.6318023842
 20
0.3282037475
 10
-4.5919380887
 20
0.1713437586
 10
-4.5400153856
 20
0.0177506736
 10
-4.4762940989
 20
-0.1318069194
 10
-4.4010930933
 20
-0.276580626
 10
-4.3147886789
 20
-0.4158459908
 10
-4.2178127276
 20
-0.5489061224
 10
-4.1106505123
 20
-0.6750951805
 10
-3.9938382785
 20
-0.7937817084
 10
-3.867960561
 20
-0.9043717921
 10
-3.7336472588
 20
-1.0063120329
 10
-3.5915704828
 20
-1.0990923163
 10
-3.4424411931
 20
-1.1822483648
  0
LWPOLYLINE
  5
8A
330
1F
100
AcDbEntity
  8
0
  6
Continuous
 62
     7
370
    25
100
AcDbPolyline
 90
        9
 70
   128
 43
0.0
 10
2.3174490612
 20
4.4390501498
 10
2.313721614
 20
4.4069782083
 10
2.3236168189
 20
4.3763552442
 10
2.3456282206
 20
4.351843326
 10
2.3764047827
 20
4.3371741712
 10
2.4112610526
 20
4.3345810256
 10
2.4448904792
 20
4.3444586721
 10
2.4721732872
 20
4.3653033285
 10
2.4889559163
 20
4.393941585
  0
LWPOLYLINE
  5
8C
330
1F
100
AcDbEntity
  8
0
  6
Continuous
 62
     7
370
    25
100
AcDbPolyline
 90
        9
 70
   128
 43
0.0
 10
3.0844604959
 20
6.1566459442
 10
3.088187943
 20
6.1887178857
 10
3.0782927382
 20
6.2193408499
 10
3.0562813365
 20
6.243852768
 10
3.0255047744
 20
6.2585219228
 10
2.9906485045
 20
6.2611150684
 10
2.9570190779
 20
6.251237422
 10
2.9297362699
 20
6.2303927655
 10
2.9129536408
 20
6.2017545091
  0
LWPOLYLINE
  5
97
330
1F
100
AcDbEntity
  8
0
  6
Continuous
 62
     7
370
    25
100
AcDbPolyline
 90
       39
 70
   128
 43
0.0
 10
1.9149449798
 20
-2.5913115855
 10
2.0913362313
 20
-2.5937717326
 10
2.2677981632
 20
-2.5847713305
 10
2.4434477505
 20
-2.5643554176
 10
2.6174060331
 20
-2.5326261564
 10
2.7888025143
 20
-2.4897423217
 10
2.9567795168
 20
-2.4359185066
 10
3.1204964745
 20
-2.3714240483
 10
3.279134139
 20
-2.2965816807
 10
3.4318986787
 20
-2.2117659191
 10
3.5780256515
 20
-2.117401186
 10
3.7167838303
 20
-2.0139596877
 10
3.8474788615
 20
-1.9019590512
 10
3.96945674
 20
-1.7819597337
 10
4.082107082
 20
-1.6545622182
 10
4.1848661791
 20
-1.5204040089
 10
4.2772198191
 20
-1.3801564407
 10
4.3587058594
 20
-1.2345213201
 10
4.4289165395
 20
-1.0842274131
 10
4.4875005212
 20
-0.9300267986
 10
4.5341646472
 20
-0.7726911048
 10
4.5686754076
 20
-0.6130076481
 10
4.5908601088
 20
-0.4517754932
 10
4.6006077372
 20
-0.2898014545
 10
4.5978695152
 20
-0.1278960589
 10
4.5826591451
 20
0.0331305102
 10
4.5550527403
 20
0.1924724671
 10
4.5151884448
 20
0.349332456
 10
4.4632657417
 20
0.502925541
 10
4.399544455
 20
0.652483134
 10
4.3243434495
 20
0.7972568406
 10
4.2380390351
 20
0.9365222054
 10
4.1410630837
 20
1.069582337
 10
4.0339008684
 20
1.1957713951
 10
3.9170886346
 20
1.314457923
 10
3.7912109171
 20
1.4250480067
 10
3.6568976149
 20
1.5269882475
 10
3.5148208389
 20
1.619768531
 10
3.3656915492
 20
1.7029245794
  0
LWPOLYLINE
  5
98
330
1F
100
AcDbEntity
  8
0
  6
Continuous
 62
     7
370
    25
100
AcDbPolyline
 90
       19
 70
   128
 43
0.0
 10
2.2154230857
 20
1.5574488965
 10
2.2498069735
 20
1.5541929684
 10
2.283634989
 20
1.5619601613
 10
2.3128269743
 20
1.5798136371
 10
2.3338619452
 20
1.6056000032
 10
2.3442027737
 20
1.6362090431
 10
2.3426022033
 20
1.6679488551
 10
2.3292532864
 20
1.6969911492
 10
2.3057660994
 20
1.7198329963
 10
2.2749735436
 20
1.7337193324
 10
2.2405896559
 20
1.7369752605
 10
2.2067616403
 20
1.7292080676
 10
2.177569655
 20
1.7113545918
 10
2.1565346841
 20
1.6855682258
 10
2.1461938556
 20
1.6549591858
 10
2.147794426
 20
1.6232193739
 10
2.1611433429
 20
1.5941770797
 10
2.1846305299
 20
1.5713352326
 10
2.2154230857
 20
1.5574488965
  0
LWPOLYLINE
  5
99
330
1F
100
AcDbEntity
  8
0
  6
Continuous
 62
     7
370
    25
100
AcDbPolyline
 90
       19
 70
   128
 43
0.0
 10
2.8109276653
 20
3.3201532558
 10
2.8453115531
 20
3.3168973277
 10
2.8791395686
 20
3.3246645206
 10
2.9083315539
 20
3.3425179964
 10
2.9293665248
 20
3.3683043624
 10
2.9397073533
 20
3.3989134024
 10
2.9381067829
 20
3.4306532143
 10
2.924757866
 20
3.4596955085
 10
2.901270679
 20
3.4825373556
 10
2.8704781232
 20
3.4964236917
 10
2.8360942354
 20
3.4996796198
 10
2.8022662199
 20
3.4919124269
 10
2.7730742346
 20
3.4740589511
 10
2.7520392637
 20
3.4482725851
 10
2.7416984352
 20
3.4176635451
 10
2.7432990056
 20
3.3859237331
 10
2.7566479225
 20
3.356881439
 10
2.7801351095
 20
3.3340395919
 10
2.8109276653
 20
3.3201532558
  0
LWPOLYLINE
  5
9A
330
1F
100
AcDbEntity
  8
0
  6
Continuous
 62
     7
370
    25
100
AcDbPolyline
 90
       18
 70
   128
 43
0.0
 10
3.9217438606
 20
7.2223804214
 10
3.8889565602
 20
7.2251715507
 10
3.8569781877
 20
7.2168728879
 10
3.8301275995
 20
7.1986052134
 10
3.8120311163
 20
7.1728356779
 10
3.8051327685
 20
7.1430445999
 10
3.8103642162
 20
7.1132554296
 10
3.8270189233
 20
7.0874913596
 10
3.8528475793
 20
7.0692319702
 10
3.8843618813
 20
7.0609432932
 10
3.9173056479
 20
7.0637447603
 10
3.9472296411
 20
7.0772580178
 10
3.9700924598
 20
7.0996580255
 10
3.9828063534
 20
7.1279195382
 10
3.9836542404
 20
7.158225682
 10
3.9725216088
 20
7.1864834442
 10
3.9509119823
 20
7.2088764576
 10
3.9217438606
 20
7.2223804214
  0
LWPOLYLINE
  5
9B
330
1F
100
AcDbEntity
  8
0
  6
Continuous
 62
     7
370
    25
100
AcDbPolyline
 90
        9
 70
   128
 43
0.0
 10
0.4118173378
 20
4.940256426
 10
0.4080898906
 20
4.9081844845
 10
0.4179850955
 20
4.8775615203
 10
0.4399964972
 20
4.8530496022
 10
0.4707730592
 20
4.8383804474
 10
0.5056293291
 20
4.8357873018
 10
0.5392587558
 20
4.8456649482
 10
0.5665415637
 20
4.8665096047
 10
0.5833241929
 20
4.8951478611
  0
LWPOLYLINE
  5
9D
330
1F
100
AcDbEntity
  8
0
  6
Continuous
 62
     7
370
    25
100
AcDbPolyline
 90
        9
 70
   128
 43
0.0
 10
1.1788287725
 20
6.6578522204
 10
1.1825562196
 20
6.6899241619
 10
1.1726610147
 20
6.720547126
 10
1.1506496131
 20
6.7450590442
 10
1.119873051
 20
6.759728199
 10
1.0850167811
 20
6.7623213446
 10
1.0513873545
 20
6.7524436981
 10
1.0241045465
 20
6.7315990417
 10
1.0073219174
 20
6.7029607852
  0
LWPOLYLINE
  5
9F
330
1F
100
AcDbEntity
  8
0
  6
Continuous
 62
     7
370
    25
100
AcDbPolyline
 90
       18
 70
   128
 43
0.0
 10
4.4576979822
 20
8.8088143448
 10
4.4249106818
 20
8.811605474
 10
4.3929323093
 20
8.8033068112
 10
4.3660817211
 20
8.7850391367
 10
4.347985238
 20
8.7592696012
 10
4.3410868902
 20
8.7294785232
 10
4.3463183378
 20
8.699689353
 10
4.3629730449
 20
8.673925283
 10
4.388801701
 20
8.6556658936
 10
4.4203160029
 20
8.6473772165
 10
4.4532597696
 20
8.6501786836
 10
4.4831837628
 20
8.6636919411
 10
4.5060465814
 20
8.6860919488
 10
4.5187604751
 20
8.7143534615
 10
4.519608362
 20
8.7446596053
 10
4.5084757305
 20
8.7729173676
 10
4.4868661039
 20
8.7953103809
 10
4.4576979822
 20
8.8088143448
  0
LWPOLYLINE
  5
A0
330
1F
100
AcDbEntity
  8
0
  6
Continuous
 62
     7
370
    25
100
AcDbPolyline
 90
       18
 70
   128
 43
0.0
 10
0.9144192771
 20
7.8406067571
 10
0.9472065775
 20
7.8378156279
 10
0.97918495
 20
7.8461142907
 10
1.0060355382
 20
7.8643819652
 10
1.0241320214
 20
7.8901515007
 10
1.0310303692
 20
7.9199425787
 10
1.0257989216
 20
7.9497317489
 10
1.0091442145
 20
7.9754958189
 10
0.9833155584
 20
7.9937552083
 10
0.9518012565
 20
8.0020438854
 10
0.9188574898
 20
7.9992424183
 10
0.8889334966
 20
7.9857291608
 10
0.866070678
 20
7.9633291531
 10
0.8533567843
 20
7.9350676404
 10
0.8525088973
 20
7.9047614966
 10
0.8636415289
 20
7.8765037343
 10
0.8852511554
 20
7.854110721
 10
0.9144192771
 20
7.8406067571
  0
LWPOLYLINE
  5
A1
330
1F
100
AcDbEntity
  8
0
  6
Continuous
 62
     7
370
    25
100
AcDbPolyline
 90
       19
 70
   128
 43
0.0
 10
-0.5239278507
 20
4.1972642391
 10
-0.4895439629
 20
4.194008311
 10
-0.4557159474
 20
4.2017755039
 10
-0.4265239621
 20
4.2196289797
 10
-0.4054889912
 20
4.2454153457
 10
-0.3951481627
 20
4.2760243857
 10
-0.3967487331
 20
4.3077641976
 10
-0.41009765
 20
4.3368064918
 10
-0.433584837
 20
4.3596483389
 10
-0.4643773928
 20
4.373534675
 10
-0.4987612805
 20
4.3767906031
 10
-0.5325892961
 20
4.3690234102
 10
-0.5617812814
 20
4.3511699344
 10
-0.5828162523
 20
4.3253835683
 10
-0.5931570808
 20
4.2947745284
 10
-0.5915565104
 20
4.2630347164
 10
-0.5782075935
 20
4.2339924223
 10
-0.5547204065
 20
4.2111505752
 10
-0.5239278507
 20
4.1972642391
  0
LWPOLYLINE
  5
A6
330
1F
100
AcDbEntity
  8
0
  6
Continuous
 62
     7
370
    25
100
AcDbPolyline
 90
       18
 70
   128
 43
0.0
 10
1.4503733988
 20
9.4270406805
 10
1.4831606992
 20
9.4242495512
 10
1.5151390717
 20
9.432548214
 10
1.5419896598
 20
9.4508158885
 10
1.560086143
 20
9.476585424
 10
1.5669844908
 20
9.506376502
 10
1.5617530432
 20
9.5361656722
 10
1.5450983361
 20
9.5619297423
 10
1.51926968
 20
9.5801891317
 10
1.4877553781
 20
9.5884778087
 10
1.4548116114
 20
9.5856763416
 10
1.4248876182
 20
9.5721630841
 10
1.4020247996
 20
9.5497630764
 10
1.3893109059
 20
9.5215015637
 10
1.3884630189
 20
9.4911954199
 10
1.3995956505
 20
9.4629376577
 10
1.4212052771
 20
9.4405446443
 10
1.4503733988
 20
9.4270406805
  0
LWPOLYLINE
  5
A7
330
1F
100
AcDbEntity
  8
0
  6
Continuous
 62
     7
370
    25
100
AcDbPolyline
 90
       19
 70
   128
 43
0.0
 10
2.0756856379
 20
-0.3916541713
 10
2.1100695257
 20
-0.3949100995
 10
2.1438975412
 20
-0.3871429066
 10
2.1730895266
 20
-0.3692894307
 10
2.1941244974
 20
-0.3435030647
 10
2.2044653259
 20
-0.3128940247
 10
2.2028647555
 20
-0.2811542128
 10
2.1895158386
 20
-0.2521119186
 10
2.1660286516
 20
-0.2292700716
 10
2.1352360959
 20
-0.2153837354
 10
2.1008522081
 20
-0.2121278073
 10
2.0670241926
 20
-0.2198950002
 10
2.0378322073
 20
-0.237748476
 10
2.0167972364
 20
-0.2635348421
 10
2.0064564079
 20
-0.294143882
 10
2.0080569783
 20
-0.325883694
 10
2.0214058952
 20
-0.3549259881
 10
2.0448930822
 20
-0.3777678352
 10
2.0756856379
 20
-0.3916541713
  0
LWPOLYLINE
  5
AA
330
1F
100
AcDbEntity
  8
0
  6
Continuous
 62
     7
370
    25
100
AcDbPolyline
 90
       19
 70
   128
 43
0.0
 10
-5.1353808268
 20
0.2865810366
 10
-5.1082894167
 20
0.1351391891
 10
-5.0665326885
 20
-0.0338028019
 10
-5.0131257263
 20
-0.1996992289
 10
-4.948283151
 20
-0.3618834215
 10
-4.8722655386
 20
-0.5197036272
 10
-4.7853783732
 20
-0.6725256306
 10
-4.6879708189
 20
-0.819735302
 10
-4.5804343173
 20
-0.9607410655
 10
-4.463201014
 20
-1.0949762759
 10
-4.3367420221
 20
-1.2219014965
 10
-4.2015655289
 20
-1.3410066662
 10
-4.0582147541
 20
-1.4518131497
 10
-3.9072657661
 20
-1.5538756607
 10
-3.749325168
 20
-1.6467840512
 10
-3.5850276588
 20
-1.7301649601
 10
-3.4150334836
 20
-1.8036833134
 10
-3.2400257801
 20
-1.8670436706
 10
-3.0607078333
 20
-1.9199914122
  0
LWPOLYLINE
  5
B0
330
1F
100
AcDbEntity
  8
0
  6
Continuous
 62
     7
370
    25
100
AcDbPolyline
 90
       26
 70
   128
 43
0.0
 10
-4.6474994978
 20
0.4096494174
 10
-4.6598596122
 20
0.5484422322
 10
-4.6625978342
 20
0.7103476278
 10
-4.6528502057
 20
0.8723216665
 10
-4.6306655046
 20
1.0335538215
 10
-4.5961547442
 20
1.1932372781
 10
-4.5494906182
 20
1.3505729719
 10
-4.4909066364
 20
1.5047735864
 10
-4.4206959564
 20
1.6550674934
 10
-4.3392099161
 20
1.8007026141
 10
-4.2468562761
 20
1.9409501822
 10
-4.144097179
 20
2.0751083915
 10
-4.031446837
 20
2.202505907
 10
-3.9094689584
 20
2.3225052246
 10
-3.7787739272
 20
2.4345058611
 10
-3.6400157485
 20
2.5379473593
 10
-3.4938887756
 20
2.6323120924
 10
-3.3411242359
 20
2.7171278541
 10
-3.1824865715
 20
2.7919702217
 10
-3.0187696137
 20
2.8564646799
 10
-2.8507926113
 20
2.910288495
 10
-2.6793961301
 20
2.9531723297
 10
-2.5054378475
 20
2.984901591
 10
-2.3297882602
 20
3.0053175038
 10
-2.1533263283
 20
3.0143179059
 10
-1.9769350768
 20
3.0118577588
  0
LWPOLYLINE
  5
D5
330
1F
100
AcDbEntity
  8
0
  6
HIDDEN
 62
     7
370
    18
100
AcDbPolyline
 90
       27
 70
   128
 43
0.0
 10
4.5855094008
 20
0.0108967559
 10
4.597418692
 20
-0.0669995311
 10
4.6126290621
 20
-0.2280261002
 10
4.6153672841
 20
-0.3899314958
 10
4.6056196557
 20
-0.5519055345
 10
4.5834349545
 20
-0.7131376894
 10
4.5489241941
 20
-0.8728211461
 10
4.5022600681
 20
-1.0301568399
 10
4.4436760864
 20
-1.1843574544
 10
4.3734654063
 20
-1.3346513614
 10
4.291979366
 20
-1.480286482
 10
4.199625726
 20
-1.6205340502
 10
4.0968666289
 20
-1.7546922595
 10
3.9842162869
 20
-1.8820897749
 10
3.8622384083
 20
-2.0020890925
 10
3.7315433772
 20
-2.114089729
 10
3.5927851984
 20
-2.2175312273
 10
3.4466582255
 20
-2.3118959603
 10
3.2938936859
 20
-2.396711722
 10
3.1352560214
 20
-2.4715540896
 10
2.9715390637
 20
-2.5360485478
 10
2.8035620612
 20
-2.589872363
 10
2.63216558
 20
-2.6327561977
 10
2.4582072974
 20
-2.6644854589
 10
2.2825577101
 20
-2.6849013718
 10
2.1060957782
 20
-2.6939017739
 10
1.9297045267
 20
-2.6914416268
  0
LWPOLYLINE
  5
DD
330
1F
100
AcDbEntity
  8
0
  6
HIDDEN
 62
     7
370
    18
100
AcDbPolyline
 90
        9
 70
   128
 43
0.0
 10
2.1952389434
 20
-0.3414381524
 10
2.2042753855
 20
-0.3522419599
 10
2.2176243024
 20
-0.3812842541
 10
2.2192248728
 20
-0.413024066
 10
2.2088840443
 20
-0.443633106
 10
2.1878490735
 20
-0.469419472
 10
2.1586570881
 20
-0.4872729478
 10
2.1248290726
 20
-0.4950401407
 10
2.0904451848
 20
-0.4917842126
  0
LWPOLYLINE
  5
ED
330
1F
100
AcDbEntity
  8
0
  6
HIDDEN
 62
     7
370
    18
100
AcDbPolyline
 90
        9
 70
   128
 43
0.0
 10
-2.0924324343
 20
0.7862759689
 10
-2.0833959922
 20
0.7754721615
 10
-2.0700470753
 20
0.7464298673
 10
-2.0684465049
 20
0.7146900554
 10
-2.0787873334
 20
0.6840810154
 10
-2.0998223042
 20
0.6582946494
 10
-2.1290142896
 20
0.6404411735
 10
-2.1628423051
 20
0.6326739806
 10
-2.1972261929
 20
0.6359299088
  0
LWPOLYLINE
  5
F0
330
1F
100
AcDbEntity
  8
0
  6
HIDDEN
 62
     7
370
    18
100
AcDbPolyline
 90
        9
 70
   128
 43
0.0
 10
2.3349763911
 20
1.6076649154
 10
2.3440128333
 20
1.596861108
 10
2.3573617502
 20
1.5678188138
 10
2.3589623206
 20
1.5360790019
 10
2.3486214921
 20
1.5054699619
 10
2.3275865212
 20
1.4796835958
 10
2.2983945359
 20
1.46183012
 10
2.2645665204
 20
1.4540629271
 10
2.2301826326
 20
1.4573188552
  0
LWPOLYLINE
  5
F5
330
1F
100
AcDbEntity
  8
0
  6
HIDDEN
 62
     7
370
    18
100
AcDbPolyline
 90
        9
 70
   128
 43
0.0
 10
-0.9998791249
 20
2.4847758987
 10
-0.9908426827
 20
2.4739720912
 10
-0.9774937658
 20
2.4449297971
 10
-0.9758931954
 20
2.4131899851
 10
-0.9862340239
 20
2.3825809452
 10
-1.0072689948
 20
2.3567945791
 10
-1.0364609801
 20
2.3389411033
 10
-1.0702889956
 20
2.3311739104
 10
-1.1046728834
 20
2.3344298385
  0
LWPOLYLINE
  5
F7
330
1F
100
AcDbEntity
  8
0
  6
HIDDEN
 62
     7
370
    18
100
AcDbPolyline
 90
        9
 70
   128
 43
0.0
 10
2.9304809707
 20
3.3703692747
 10
2.9395174129
 20
3.3595654672
 10
2.9528663298
 20
3.3305231731
 10
2.9544669002
 20
3.2987833611
 10
2.9441260717
 20
3.2681743211
 10
2.9230911008
 20
3.2423879551
 10
2.8938991155
 20
3.2245344793
 10
2.8600710999
 20
3.2167672864
 10
2.8256872122
 20
3.2200232145
  0
LWPOLYLINE
  5
F8
330
1F
100
AcDbEntity
  8
0
  6
HIDDEN
 62
     7
370
    18
100
AcDbPolyline
 90
        9
 70
   128
 43
0.0
 10
2.5037154632
 20
4.2938115437
 10
2.4869328341
 20
4.2651732873
 10
2.4596500261
 20
4.2443286308
 10
2.4260205995
 20
4.2344509843
 10
2.3911643296
 20
4.23704413
 10
2.3603877675
 20
4.2517132848
 10
2.3383763658
 20
4.2762252029
 10
2.3284811609
 20
4.3068481671
 10
2.3322086081
 20
4.3389201085
  0
LWPOLYLINE
  5
FC
330
1F
100
AcDbEntity
  8
0
  6
HIDDEN
 62
     7
370
    18
100
AcDbPolyline
 90
        9
 70
   128
 43
0.0
 10
-0.4043745453
 20
4.247480258
 10
-0.3953381031
 20
4.2366764505
 10
-0.3819891862
 20
4.2076341564
 10
-0.3803886158
 20
4.1758943444
 10
-0.3907294443
 20
4.1452853044
 10
-0.4117644152
 20
4.1194989384
 10
-0.4409564005
 20
4.1016454626
 10
-0.474784416
 20
4.0938782697
 10
-0.5091683038
 20
4.0971341978
  0
LWPOLYLINE
  5
FD
330
1F
100
AcDbEntity
  8
0
  6
HIDDEN
 62
     7
370
    18
100
AcDbPolyline
 90
        9
 70
   128
 43
0.0
 10
0.5980837398
 20
4.7950178199
 10
0.5813011106
 20
4.7663795634
 10
0.5540183027
 20
4.745534907
 10
0.520388876
 20
4.7356572605
 10
0.4855326061
 20
4.7382504061
 10
0.4547560441
 20
4.7529195609
 10
0.4327446424
 20
4.7774314791
 10
0.4228494375
 20
4.8080544432
 10
0.4265768847
 20
4.8401263847
  0
LWPOLYLINE
  5
100
330
1F
100
AcDbEntity
  8
0
  6
HIDDEN
 62
     7
370
    18
100
AcDbPolyline
 90
       30
 70
   128
 43
0.0
 10
3.7340301436
 20
7.1371169206
 10
3.6899964125
 20
7.0255487348
 10
3.634712513
 20
6.918054754
 10
3.5686791045
 20
6.8156084602
 10
3.4924941958
 20
6.7191376229
 10
3.4068477293
 20
6.6295158969
 10
3.3125153327
 20
6.5475549105
 10
3.2103512946
 20
6.4739969151
 10
3.1012808285
 20
6.4095080633
 10
2.9862916934
 20
6.3546723761
 10
2.8664252487
 20
6.309986454
 10
2.7427670235
 20
6.2758549795
 10
2.6164368858
 20
6.2525870527
 10
2.4885789009
 20
6.2403933914
 10
2.3603509706
 20
6.2393844234
 10
2.2329143468
 20
6.2495692861
 10
2.1074231153
 20
6.2708557436
 10
1.9850137441
 20
6.3030510227
 10
1.8667947916
 20
6.3458635577
 10
1.7538368667
 20
6.3989056319
 10
1.647162934
 20
6.461696888
 10
1.5477390491
 20
6.5336686785
 10
1.4564656102
 20
6.6141692159
 10
1.3741692035
 20
6.7024694748
 10
1.3015951182
 20
6.7977697944
 10
1.2394005963
 20
6.8992071203
 10
1.1881488812
 20
7.0058628202
 10
1.1483041162
 20
7.1167710037
 10
1.1202271417
 20
7.2309272691
 10
1.1059033072
 20
7.3287938404
  0
LWPOLYLINE
  5
103
330
1F
100
AcDbEntity
  8
0
  6
HIDDEN
 62
     7
370
    18
100
AcDbPolyline
 90
        9
 70
   128
 43
0.0
 10
3.9725390705
 20
7.1033433875
 10
3.9776329327
 20
7.0984960496
 10
3.9942876398
 20
7.0727319796
 10
3.9995190874
 20
7.0429428093
 10
3.9926207396
 20
7.0131517314
 10
3.9745242564
 20
6.9873821959
 10
3.9476736682
 20
6.9691145214
 10
3.9156952957
 20
6.9608158586
 10
3.8829079953
 20
6.9636069878
  0
LWPOLYLINE
  5
10E
330
1F
100
AcDbEntity
  8
0
  6
HIDDEN
 62
     7
370
    18
100
AcDbPolyline
 90
        9
 70
   128
 43
0.0
 10
1.0188098992
 20
7.8802131155
 10
1.0239037614
 20
7.8753657777
 10
1.0405584685
 20
7.8496017076
 10
1.0457899161
 20
7.8198125374
 10
1.0388915683
 20
7.7900214594
 10
1.0207950851
 20
7.7642519239
 10
0.9939444969
 20
7.7459842494
 10
0.9619661244
 20
7.7376855866
 10
0.929178824
 20
7.7404767159
  0
LWPOLYLINE
  5
112
330
1F
100
AcDbEntity
  8
0
  6
HIDDEN
 62
     7
370
    18
100
AcDbPolyline
 90
        9
 70
   128
 43
0.0
 10
4.5084931921
 20
8.6897773108
 10
4.5135870543
 20
8.684929973
 10
4.5302417614
 20
8.6591659029
 10
4.535473209
 20
8.6293767327
 10
4.5285748612
 20
8.5995856547
 10
4.510478378
 20
8.5738161192
 10
4.4836277899
 20
8.5555484447
 10
4.4516494174
 20
8.5472497819
 10
4.418862117
 20
8.5500409112
  0
LWPOLYLINE
  5
117
330
1F
100
AcDbEntity
  8
0
  6
HIDDEN
 62
     7
370
    18
100
AcDbPolyline
 90
        9
 70
   128
 43
0.0
 10
1.5547640208
 20
9.4666470389
 10
1.559857883
 20
9.461799701
 10
1.5765125901
 20
9.436035631
 10
1.5817440377
 20
9.4062464607
 10
1.5748456899
 20
9.3764553828
 10
1.5567492067
 20
9.3506858473
 10
1.5298986186
 20
9.3324181728
 10
1.4979202461
 20
9.3241195099
 10
1.4651329457
 20
9.3269106392
  0
LINE
  5
139
330
1F
100
AcDbEntity
  8
0
  6
Continuous
 62
     7
370
    25
100
AcDbLine
 10
-5.1501403736
 20
0.3867110779
 30
0.0
 11
-5.1353808268
 21
0.2865810366
 31
0.0
  0
LINE
  5
13A
330
1F
100
AcDbEntity
  8
0
  6
Continuous
 62
     7
370
    25
100
AcDbLine
 10
2.4170134001
 20
-0.3599005856
 30
0.0
 11
2.4022538532
 21
-0.2597705444
 31
0.0
  0
LINE
  5
13B
330
1F
100
AcDbEntity
  8
0
  6
Continuous
 62
     7
370
    25
100
AcDbLine
 10
-2.4790034971
 20
0.780446759
 30
0.0
 11
-2.4642439502
 21
0.6803167177
 31
0.0
  0
LINE
  5
13C
330
1F
100
AcDbEntity
  8
0
  6
Continuous
 62
     7
370
    25
100
AcDbLine
 10
5.3958781599
 20
8.0774920096
 30
0.0
 11
5.381118613
 21
8.1776220508
 31
0.0
  0
LINE
  5
13D
330
1F
100
AcDbEntity
  8
0
  6
Continuous
 62
     7
370
    25
100
AcDbLine
 10
5.4054543639
 20
7.727386279
 30
0.0
 11
5.0983948243
 21
-0.3286356624
 31
0.0
  0
LINE
  5
13E
330
1F
100
AcDbEntity
  8
0
  6
Continuous
 62
     7
370
    25
100
AcDbLine
 10
-3.0754673802
 20
-1.8198613709
 30
0.0
 11
1.2122039975
 21
-2.9475754923
 31
0.0
  0
LINE
  5
13F
330
1F
100
AcDbEntity
  8
0
  6
Continuous
 62
     7
370
    25
100
AcDbLine
 10
-4.7022577248
 20
2.2490652164
 30
0.0
 11
0.0398316981
 21
9.138615806
 31
0.0
  0
LINE
  5
140
330
1F
100
AcDbEntity
  8
0
  6
Continuous
 62
     7
370
    25
100
AcDbLine
 10
1.9770920345
 20
10.3719463231
 30
0.0
 11
1.5932962047
 21
9.2359037041
 31
0.0
  0
LINE
  5
141
330
1F
100
AcDbEntity
  8
0
  6
Continuous
 62
     7
370
    25
100
AcDbLine
 10
1.5932962047
 20
9.2359037041
 30
0.0
 11
1.0216066877
 21
9.386265587
 31
0.0
  0
LINE
  5
142
330
1F
100
AcDbEntity
  8
0
  6
Continuous
 62
     7
370
    25
100
AcDbLine
 10
0.8965498726
 20
9.3231906828
 30
0.0
 11
0.5690223538
 21
8.3537032852
 31
0.0
  0
LINE
  5
143
330
1F
100
AcDbEntity
  8
0
  6
Continuous
 62
     7
370
    25
100
AcDbLine
 10
0.634528711
 20
8.2405077534
 30
0.0
 11
1.206218228
 21
8.0901458706
 31
0.0
  0
LINE
  5
144
330
1F
100
AcDbEntity
  8
0
  6
Continuous
 62
     7
370
    25
100
AcDbLine
 10
1.206218228
 20
8.0901458706
 30
0.0
 11
1.14666777
 21
7.9138754347
 31
0.0
  0
LINE
  5
145
330
1F
100
AcDbEntity
  8
0
  6
Continuous
 62
     7
370
    25
100
AcDbLine
 10
3.7192705967
 20
7.2372469618
 30
0.0
 11
3.7788210546
 21
7.4135173978
 31
0.0
  0
LINE
  5
146
330
1F
100
AcDbEntity
  8
0
  6
Continuous
 62
     7
370
    25
100
AcDbLine
 10
3.7788210546
 20
7.4135173978
 30
0.0
 11
4.3505105716
 21
7.2631555149
 31
0.0
  0
LINE
  5
147
330
1F
100
AcDbEntity
  8
0
  6
Continuous
 62
     7
370
    25
100
AcDbLine
 10
4.4755673868
 20
7.3262304191
 30
0.0
 11
4.8030949056
 21
8.2957178167
 31
0.0
  0
LINE
  5
148
330
1F
100
AcDbEntity
  8
0
  6
Continuous
 62
     7
370
    25
100
AcDbLine
 10
4.7375885484
 20
8.4089133484
 30
0.0
 11
4.1658990314
 21
8.5592752313
 31
0.0
  0
LINE
  5
149
330
1F
100
AcDbEntity
  8
0
  6
Continuous
 62
     7
370
    25
100
AcDbLine
 10
4.1658990314
 20
8.5592752313
 30
0.0
 11
4.5496948611
 21
9.6953178502
 31
0.0
  0
LINE
  5
14A
330
1F
100
AcDbEntity
  8
0
  6
Continuous
 62
     7
370
    25
100
AcDbLine
 10
-1.8705900205
 20
0.0110043288
 30
0.0
 11
-2.4193356478
 21
0.6507287525
 31
0.0
  0
LINE
  5
14B
330
1F
100
AcDbEntity
  8
0
  6
Continuous
 62
     7
370
    25
100
AcDbLine
 10
-2.2729930097
 20
1.0839056164
 30
0.0
 11
-1.4168367272
 21
1.3541223089
 31
0.0
  0
LINE
  5
14C
330
1F
100
AcDbEntity
  8
0
  6
Continuous
 62
     7
370
    25
100
AcDbLine
 10
-1.3519690844
 20
1.4707165353
 30
0.0
 11
-1.9041867833
 21
3.0505001718
 31
0.0
  0
LINE
  5
14D
330
1F
100
AcDbEntity
  8
0
  6
Continuous
 62
     7
370
    25
100
AcDbLine
 10
-3.3310602294
 20
-1.173071115
 30
0.0
 11
-1.8886599965
 21
-0.1178983012
 31
0.0
  0
LINE
  5
14E
330
1F
100
AcDbEntity
  8
0
  6
Continuous
 62
     7
370
    25
100
AcDbLine
 10
2.4889559163
 20
4.393941585
 30
0.0
 11
3.0844604959
 21
6.1566459442
 31
0.0
  0
LINE
  5
14F
330
1F
100
AcDbEntity
  8
0
  6
Continuous
 62
     7
370
    25
100
AcDbLine
 10
2.9129536408
 20
6.2017545091
 30
0.0
 11
2.3174490612
 21
4.4390501498
 31
0.0
  0
LINE
  5
150
330
1F
100
AcDbEntity
  8
0
  6
Continuous
 62
     7
370
    25
100
AcDbLine
 10
3.2543105855
 20
1.6937473296
 30
0.0
 11
1.8119103526
 21
0.6385745158
 31
0.0
  0
LINE
  5
151
330
1F
100
AcDbEntity
  8
0
  6
Continuous
 62
     7
370
    25
100
AcDbLine
 10
1.7938403766
 20
0.5096718858
 30
0.0
 11
2.3425860039
 21
-0.1300525379
 31
0.0
  0
LINE
  5
152
330
1F
100
AcDbEntity
  8
0
  6
Continuous
 62
     7
370
    25
100
AcDbLine
 10
2.1962433658
 20
-0.5632294018
 30
0.0
 11
1.3400870834
 21
-0.8334460943
 31
0.0
  0
LINE
  5
153
330
1F
100
AcDbEntity
  8
0
  6
Continuous
 62
     7
370
    25
100
AcDbLine
 10
1.2752194405
 20
-0.9500403207
 30
0.0
 11
1.8274371395
 21
-2.5298239572
 31
0.0
  0
LINE
  5
154
330
1F
100
AcDbEntity
  8
0
  6
Continuous
 62
     7
370
    25
100
AcDbLine
 10
0.5833241929
 20
4.8951478611
 30
0.0
 11
1.1788287725
 21
6.6578522204
 31
0.0
  0
LINE
  5
155
330
1F
100
AcDbEntity
  8
0
  6
Continuous
 62
     7
370
    25
100
AcDbLine
 10
1.0073219174
 20
6.7029607852
 30
0.0
 11
0.4118173378
 21
4.940256426
 31
0.0
  0
LINE
  5
156
330
1F
100
AcDbEntity
  8
0
  6
Continuous
 62
     7
370
    25
100
AcDbLine
 10
0.5948021431
 20
-0.2838239466
 30
0.0
 11
0.8291331952
 21
0.4098002187
 31
0.0
  0
LINE
  5
157
330
1F
100
AcDbEntity
  8
0
  6
Continuous
 62
     7
370
    25
100
AcDbLine
 10
0.8291331952
 20
0.4098002187
 30
0.0
 11
-0.671551787
 21
0.8045001612
 31
0.0
  0
LINE
  5
158
330
1F
100
AcDbEntity
  8
0
  6
Continuous
 62
     7
370
    25
100
AcDbLine
 10
-0.671551787
 20
0.8045001612
 30
0.0
 11
-0.9058828391
 21
0.1108759959
 31
0.0
  0
LINE
  5
159
330
1F
100
AcDbEntity
  8
0
  6
Continuous
 62
     7
370
    25
100
AcDbLine
 10
-0.9058828391
 20
0.1108759959
 30
0.0
 11
0.5948021431
 21
-0.2838239466
 31
0.0
  0
LINE
  5
15A
330
1F
100
AcDbEntity
  8
0
  6
Continuous
 62
     7
370
    25
100
AcDbLine
 10
-3.0607078333
 20
-1.9199914122
 30
0.0
 11
1.2269635444
 21
-3.0477055336
 31
0.0
  0
LINE
  5
15B
330
1F
100
AcDbEntity
  8
0
  6
Continuous
 62
     7
370
    25
100
AcDbLine
 10
1.3548466303
 20
-0.9335761356
 30
0.0
 11
2.2110029127
 21
-0.663359443
 31
0.0
  0
LINE
  5
15C
330
1F
100
AcDbEntity
  8
0
  6
Continuous
 62
     7
370
    25
100
AcDbLine
 10
5.4202139108
 20
7.6272562377
 30
0.0
 11
5.1131543712
 21
-0.4287657036
 31
0.0
  0
LINE
  5
15D
330
1F
100
AcDbEntity
  8
0
  6
Continuous
 62
     7
370
    25
100
AcDbLine
 10
1.8266698995
 20
0.5384444745
 30
0.0
 11
3.2690701324
 21
1.5936172883
 31
0.0
  0
LINE
  5
15E
330
1F
100
AcDbEntity
  8
0
  6
Continuous
 62
     7
370
    25
100
AcDbLine
 10
-0.671551787
 20
0.8045001612
 30
0.0
 11
-0.6567922401
 21
0.70437012
 31
0.0
  0
LINE
  5
15F
330
1F
100
AcDbEntity
  8
0
  6
Continuous
 62
     7
370
    25
100
AcDbLine
 10
-0.8911232922
 20
0.0107459546
 30
0.0
 11
-0.6567922401
 21
0.70437012
 31
0.0
  0
LINE
  5
160
330
1F
100
AcDbEntity
  8
0
  6
Continuous
 62
     7
370
    25
100
AcDbLine
 10
-2.4045761009
 20
0.5505987113
 30
0.0
 11
-1.8558304736
 21
-0.0891257124
 31
0.0
  0
LINE
  5
161
330
1F
100
AcDbEntity
  8
0
  6
Continuous
 62
     7
370
    25
100
AcDbLine
 10
-0.6567922401
 20
0.70437012
 30
0.0
 11
0.8438927421
 21
0.3096701775
 31
0.0
  0
LINE
  5
162
330
1F
100
AcDbEntity
  8
0
  6
Continuous
 62
     7
370
    25
100
AcDbLine
 10
-1.8894272365
 20
2.9503701305
 30
0.0
 11
-1.3372095375
 21
1.370586494
 31
0.0
  0
LINE
  5
163
330
1F
100
AcDbEntity
  8
0
  6
Continuous
 62
     7
370
    25
100
AcDbLine
 10
2.3322086081
 20
4.3389201085
 30
0.0
 11
2.9277131877
 21
6.1016244678
 31
0.0
  0
LINE
  5
164
330
1F
100
AcDbEntity
  8
0
  6
Continuous
 62
     7
370
    25
100
AcDbLine
 10
0.4265768847
 20
4.8401263847
 30
0.0
 11
1.0220814643
 21
6.602830744
 31
0.0
  0
LINE
  5
165
330
1F
100
AcDbEntity
  8
0
  6
Continuous
 62
     7
370
    25
100
AcDbLine
 10
4.1658990314
 20
8.5592752313
 30
0.0
 11
4.1806585783
 21
8.45914519
 31
0.0
  0
LINE
  5
166
330
1F
100
AcDbEntity
  8
0
  6
Continuous
 62
     7
370
    25
100
AcDbLine
 10
4.1806585783
 20
8.45914519
 30
0.0
 11
4.7523480953
 21
8.3087833072
 31
0.0
  0
LINE
  5
167
330
1F
100
AcDbEntity
  8
0
  6
Continuous
 62
     7
370
    25
100
AcDbLine
 10
1.206218228
 20
8.0901458706
 30
0.0
 11
1.2209777749
 21
7.9900158293
 31
0.0
  0
LINE
  5
168
330
1F
100
AcDbEntity
  8
0
  6
Continuous
 62
     7
370
    25
100
AcDbLine
 10
1.1614273169
 20
7.8137453934
 30
0.0
 11
1.2209777749
 21
7.9900158293
 31
0.0
  0
LINE
  5
169
330
1F
100
AcDbEntity
  8
0
  6
Continuous
 62
     7
370
    25
100
AcDbLine
 10
0.5837819007
 20
8.2535732439
 30
0.0
 11
0.9113094195
 21
9.2230606415
 31
0.0
  0
LINE
  5
16A
330
1F
100
AcDbEntity
  8
0
  6
Continuous
 62
     7
370
    25
100
AcDbLine
 10
1.5932962047
 20
9.2359037041
 30
0.0
 11
1.6080557516
 21
9.1357736629
 31
0.0
  0
LINE
  5
16B
330
1F
100
AcDbEntity
  8
0
  6
Continuous
 62
     7
370
    25
100
AcDbLine
 10
1.0363662346
 20
9.2861355457
 30
0.0
 11
1.6080557516
 21
9.1357736629
 31
0.0
  0
LINE
  5
16C
330
1F
100
AcDbEntity
  8
0
  6
Continuous
 62
     7
370
    25
100
AcDbLine
 10
1.9918515814
 20
10.2718162818
 30
0.0
 11
1.9770920345
 21
10.3719463231
 31
0.0
  0
LINE
  5
16D
330
1F
100
AcDbEntity
  8
0
  6
Continuous
 62
     7
370
    25
100
AcDbLine
 10
1.6080557516
 20
9.1357736629
 30
0.0
 11
1.9918515814
 21
10.2718162818
 31
0.0
  0
LINE
  5
16E
330
1F
100
AcDbEntity
  8
0
  6
HIDDEN
 62
     7
370
    18
100
AcDbLine
 10
1.8421966864
 20
-2.6299539984
 30
0.0
 11
1.2899789874
 21
-1.050170362
 31
0.0
  0
LINE
  5
16F
330
1F
100
AcDbEntity
  8
0
  6
HIDDEN
 62
     7
370
    18
100
AcDbLine
 10
-1.8739004496
 20
-0.2180283424
 30
0.0
 11
-3.3163006825
 21
-1.2732011563
 31
0.0
  0
LINE
  5
170
330
1F
100
AcDbEntity
  8
0
  6
HIDDEN
 62
     7
370
    18
100
AcDbLine
 10
2.3573455508
 20
-0.2301825792
 30
0.0
 11
1.8085999235
 21
0.4095418445
 31
0.0
  0
LINE
  5
171
330
1F
100
AcDbEntity
  8
0
  6
HIDDEN
 62
     7
370
    18
100
AcDbLine
 10
0.8438927421
 20
0.3096701775
 30
0.0
 11
0.60956169
 21
-0.3839539879
 31
0.0
  0
LINE
  5
172
330
1F
100
AcDbEntity
  8
0
  6
HIDDEN
 62
     7
370
    18
100
AcDbLine
 10
0.5948021431
 20
-0.2838239466
 30
0.0
 11
0.60956169
 21
-0.3839539879
 31
0.0
  0
LINE
  5
173
330
1F
100
AcDbEntity
  8
0
  6
HIDDEN
 62
     7
370
    18
100
AcDbLine
 10
0.60956169
 20
-0.3839539879
 30
0.0
 11
-0.8911232922
 21
0.0107459546
 31
0.0
  0
LINE
  5
174
330
1F
100
AcDbEntity
  8
0
  6
HIDDEN
 62
     7
370
    18
100
AcDbLine
 10
-0.9058828391
 20
0.1108759959
 30
0.0
 11
-0.8911232922
 21
0.0107459546
 31
0.0
  0
LINE
  5
175
330
1F
100
AcDbEntity
  8
0
  6
HIDDEN
 62
     7
370
    18
100
AcDbLine
 10
0.8291331952
 20
0.4098002187
 30
0.0
 11
0.8438927421
 21
0.3096701775
 31
0.0
  0
LINE
  5
176
330
1F
100
AcDbEntity
  8
0
  6
HIDDEN
 62
     7
370
    18
100
AcDbLine
 10
-1.4020771803
 20
1.2539922676
 30
0.0
 11
-2.2582334628
 21
0.9837755751
 31
0.0
  0
LINE
  5
177
330
1F
100
AcDbEntity
  8
0
  6
HIDDEN
 62
     7
370
    18
100
AcDbLine
 10
-4.6874981779
 20
2.1489351752
 30
0.0
 11
0.054591245
 21
9.0384857647
 31
0.0
  0
LINE
  5
178
330
1F
100
AcDbEntity
  8
0
  6
HIDDEN
 62
     7
370
    18
100
AcDbLine
 10
3.0992200428
 20
6.056515903
 30
0.0
 11
2.5037154632
 21
4.2938115437
 31
0.0
  0
LINE
  5
179
330
1F
100
AcDbEntity
  8
0
  6
HIDDEN
 62
     7
370
    18
100
AcDbLine
 10
1.1935883194
 20
6.5577221791
 30
0.0
 11
0.5980837398
 21
4.7950178199
 31
0.0
  0
LINE
  5
17A
330
1F
100
AcDbEntity
  8
0
  6
HIDDEN
 62
     7
370
    18
100
AcDbLine
 10
4.3652701185
 20
7.1630254737
 30
0.0
 11
3.7935806015
 21
7.3133873565
 31
0.0
  0
LINE
  5
17B
330
1F
100
AcDbEntity
  8
0
  6
HIDDEN
 62
     7
370
    18
100
AcDbLine
 10
4.8178544525
 20
8.1955877754
 30
0.0
 11
4.4903269337
 21
7.2261003778
 31
0.0
  0
LINE
  5
17C
330
1F
100
AcDbEntity
  8
0
  6
HIDDEN
 62
     7
370
    18
100
AcDbLine
 10
3.7788210546
 20
7.4135173978
 30
0.0
 11
3.7935806015
 21
7.3133873565
 31
0.0
  0
LINE
  5
17D
330
1F
100
AcDbEntity
  8
0
  6
HIDDEN
 62
     7
370
    18
100
AcDbLine
 10
3.7935806015
 20
7.3133873565
 30
0.0
 11
3.7340301436
 21
7.1371169206
 31
0.0
  0
LINE
  5
17E
330
1F
100
AcDbEntity
  8
0
  6
HIDDEN
 62
     7
370
    18
100
AcDbLine
 10
4.5496948611
 20
9.6953178502
 30
0.0
 11
4.564454408
 21
9.595187809
 31
0.0
  0
LINE
  5
17F
330
1F
100
AcDbEntity
  8
0
  6
HIDDEN
 62
     7
370
    18
100
AcDbLine
 10
1.2209777749
 20
7.9900158293
 30
0.0
 11
0.6492882579
 21
8.1403777122
 31
0.0
  0
LINE
  5
180
330
1F
100
AcDbEntity
  8
0
  6
HIDDEN
 62
     7
370
    18
100
AcDbLine
 10
4.564454408
 20
9.595187809
 30
0.0
 11
4.1806585783
 21
8.45914519
 31
0.0
  0
LINE
  5
181
330
1F
100
AcDbEntity
  8
0
  6
HIDDEN
 62
     7
370
    18
100
AcDbLine
 10
4.5934952995
 20
-0.0390789195
 30
0.0
 11
4.5787357526
 21
0.0610511217
 31
0.0
  0
LINE
  5
182
330
1F
100
AcDbEntity
  8
0
  6
HIDDEN
 62
     7
370
    18
100
AcDbLine
 10
1.2714169209
 20
-0.9345990468
 30
0.0
 11
1.2861764678
 21
-1.034729088
 31
0.0
  0
LINE
  5
183
330
1F
100
AcDbEntity
  8
0
  6
HIDDEN
 62
     7
370
    18
100
AcDbLine
 10
2.2191514092
 20
-0.3890661916
 30
0.0
 11
2.2043918623
 21
-0.2889361504
 31
0.0
  0
LINE
  5
184
330
1F
100
AcDbEntity
  8
0
  6
HIDDEN
 62
     7
370
    18
100
AcDbLine
 10
2.0065298715
 20
-0.3181017564
 30
0.0
 11
2.0212894184
 21
-0.4182317977
 31
0.0
  0
LINE
  5
185
330
1F
100
AcDbEntity
  8
0
  6
HIDDEN
 62
     7
370
    18
100
AcDbLine
 10
-4.6554853965
 20
0.4596250929
 30
0.0
 11
-4.6407258496
 21
0.3594950516
 31
0.0
  0
LINE
  5
186
330
1F
100
AcDbEntity
  8
0
  6
HIDDEN
 62
     7
370
    18
100
AcDbLine
 10
-1.8359411905
 20
-0.1323650479
 30
0.0
 11
-1.8507007374
 21
-0.0322350066
 31
0.0
  0
LINE
  5
187
330
1F
100
AcDbEntity
  8
0
  6
HIDDEN
 62
     7
370
    18
100
AcDbLine
 10
1.7739510935
 20
0.5529112212
 30
0.0
 11
1.7887106404
 21
0.45278118
 31
0.0
  0
LINE
  5
188
330
1F
100
AcDbEntity
  8
0
  6
HIDDEN
 62
     7
370
    18
100
AcDbLine
 10
-2.0685199685
 20
0.7386479297
 30
0.0
 11
-2.0832795154
 21
0.838777971
 31
0.0
  0
LINE
  5
189
330
1F
100
AcDbEntity
  8
0
  6
HIDDEN
 62
     7
370
    18
100
AcDbLine
 10
-2.2811415062
 20
0.809612365
 30
0.0
 11
-2.2663819593
 21
0.7094823237
 31
0.0
  0
LINE
  5
18A
330
1F
100
AcDbEntity
  8
0
  6
HIDDEN
 62
     7
370
    18
100
AcDbLine
 10
2.358888857
 20
1.5600368762
 30
0.0
 11
2.3441293101
 21
1.6601669175
 31
0.0
  0
LINE
  5
18B
330
1F
100
AcDbEntity
  8
0
  6
HIDDEN
 62
     7
370
    18
100
AcDbLine
 10
2.1462673192
 20
1.6310013115
 30
0.0
 11
2.1610268661
 21
1.5308712702
 31
0.0
  0
LINE
  5
18C
330
1F
100
AcDbEntity
  8
0
  6
HIDDEN
 62
     7
370
    18
100
AcDbLine
 10
-1.3334070179
 20
1.3551452201
 30
0.0
 11
-1.3481665648
 21
1.4552752614
 31
0.0
  0
LINE
  5
18D
330
1F
100
AcDbEntity
  8
0
  6
HIDDEN
 62
     7
370
    18
100
AcDbLine
 10
-0.975966659
 20
2.4371478595
 30
0.0
 11
-0.9907262059
 21
2.5372779008
 31
0.0
  0
LINE
  5
18E
330
1F
100
AcDbEntity
  8
0
  6
HIDDEN
 62
     7
370
    18
100
AcDbLine
 10
-1.1885881968
 20
2.5081122948
 30
0.0
 11
-1.1738286499
 21
2.4079822535
 31
0.0
  0
LINE
  5
18F
330
1F
100
AcDbEntity
  8
0
  6
HIDDEN
 62
     7
370
    18
100
AcDbLine
 10
2.9543934366
 20
3.3227412355
 30
0.0
 11
2.9396338897
 21
3.4228712767
 31
0.0
  0
LINE
  5
190
330
1F
100
AcDbEntity
  8
0
  6
HIDDEN
 62
     7
370
    18
100
AcDbLine
 10
2.7417718988
 20
3.3937056707
 30
0.0
 11
2.7565314457
 21
3.2935756295
 31
0.0
  0
LINE
  5
191
330
1F
100
AcDbEntity
  8
0
  6
HIDDEN
 62
     7
370
    18
100
AcDbLine
 10
2.3141645929
 20
4.4033713447
 30
0.0
 11
2.3289241398
 21
4.3032413034
 31
0.0
  0
LINE
  5
192
330
1F
100
AcDbEntity
  8
0
  6
HIDDEN
 62
     7
370
    18
100
AcDbLine
 10
-0.3804620794
 20
4.1998522188
 30
0.0
 11
-0.3952216263
 21
4.29998226
 31
0.0
  0
LINE
  5
193
330
1F
100
AcDbEntity
  8
0
  6
HIDDEN
 62
     7
370
    18
100
AcDbLine
 10
-0.5930836172
 20
4.270816654
 30
0.0
 11
-0.5783240703
 21
4.1706866128
 31
0.0
  0
LINE
  5
194
330
1F
100
AcDbEntity
  8
0
  6
HIDDEN
 62
     7
370
    18
100
AcDbLine
 10
0.4085328694
 20
4.9045776208
 30
0.0
 11
0.4232924163
 21
4.8044475796
 31
0.0
  0
LINE
  5
195
330
1F
100
AcDbEntity
  8
0
  6
HIDDEN
 62
     7
370
    18
100
AcDbLine
 10
1.0974007451
 20
7.3786933577
 30
0.0
 11
1.112160292
 21
7.2785633164
 31
0.0
  0
LINE
  5
196
330
1F
100
AcDbEntity
  8
0
  6
HIDDEN
 62
     7
370
    18
100
AcDbLine
 10
3.1025045111
 20
6.0921947081
 30
0.0
 11
3.0877449642
 21
6.1923247494
 31
0.0
  0
LINE
  5
197
330
1F
100
AcDbEntity
  8
0
  6
HIDDEN
 62
     7
370
    18
100
AcDbLine
 10
3.9987435973
 20
7.0560532067
 30
0.0
 11
3.9839840504
 21
7.156183248
 31
0.0
  0
LINE
  5
198
330
1F
100
AcDbEntity
  8
0
  6
HIDDEN
 62
     7
370
    18
100
AcDbLine
 10
3.8059082586
 20
7.1299342025
 30
0.0
 11
3.8206678055
 21
7.0298041613
 31
0.0
  0
LINE
  5
199
330
1F
100
AcDbEntity
  8
0
  6
HIDDEN
 62
     7
370
    18
100
AcDbLine
 10
1.1968727877
 20
6.5934009843
 30
0.0
 11
1.1821132408
 21
6.6935310255
 31
0.0
  0
LINE
  5
19A
330
1F
100
AcDbEntity
  8
0
  6
HIDDEN
 62
     7
370
    18
100
AcDbLine
 10
4.8215038617
 20
8.2352308922
 30
0.0
 11
4.8067443148
 21
8.3353609335
 31
0.0
  0
LINE
  5
19B
330
1F
100
AcDbEntity
  8
0
  6
HIDDEN
 62
     7
370
    18
100
AcDbLine
 10
1.045014426
 20
7.8329229347
 30
0.0
 11
1.0302548791
 21
7.933052976
 31
0.0
  0
LINE
  5
19C
330
1F
100
AcDbEntity
  8
0
  6
HIDDEN
 62
     7
370
    18
100
AcDbLine
 10
0.8521790873
 20
7.9068039306
 30
0.0
 11
0.8669386342
 21
7.8066738893
 31
0.0
  0
LINE
  5
19D
330
1F
100
AcDbEntity
  8
0
  6
HIDDEN
 62
     7
370
    18
100
AcDbLine
 10
4.5346977189
 20
8.64248713
 30
0.0
 11
4.519938172
 21
8.7426171713
 31
0.0
  0
LINE
  5
19E
330
1F
100
AcDbEntity
  8
0
  6
HIDDEN
 62
     7
370
    18
100
AcDbLine
 10
4.3418623803
 20
8.7163681259
 30
0.0
 11
4.3566219272
 21
8.6162380846
 31
0.0
  0
LINE
  5
19F
330
1F
100
AcDbEntity
  8
0
  6
HIDDEN
 62
     7
370
    18
100
AcDbLine
 10
0.5653729445
 20
8.3140601684
 30
0.0
 11
0.5801324914
 21
8.2139301271
 31
0.0
  0
LINE
  5
1A0
330
1F
100
AcDbEntity
  8
0
  6
HIDDEN
 62
     7
370
    18
100
AcDbLine
 10
1.5809685476
 20
9.4193568581
 30
0.0
 11
1.5662090007
 21
9.5194868994
 31
0.0
  0
LINE
  5
1A1
330
1F
100
AcDbEntity
  8
0
  6
HIDDEN
 62
     7
370
    18
100
AcDbLine
 10
1.388133209
 20
9.4932378539
 30
0.0
 11
1.4028927559
 21
9.3931078127
 31
0.0
  0
ARC
  5
1A2
330
1F
100
AcDbEntity
  8
0
  6
Continuous
 62
     7
370
    25
100
AcDbCircle
 10
2.5122994718
 20
7.3931203093
 30
0.0
 40
3.02652464407882
100
AcDbArc
 50
100.1856913749
 51
144.7789406416
  0
ARC
  5
1A3
330
1F
100
AcDbEntity
  8
0
  6
Continuous
 62
     7
370
    25
100
AcDbCircle
 10
0.9936514251
 20
9.2861809455
 30
0.0
 40
0.1039155049084474
100
AcDbArc
 50
74.394090061
 51
159.1359224683
  0
ARC
  5
1A4
330
1F
100
AcDbEntity
  8
0
  6
Continuous
 62
     7
370
    25
100
AcDbCircle
 10
0.6533790932
 20
8.3269685469
 30
0.0
 40
0.0884918398011731
100
AcDbArc
 50
162.4153029379
 51
257.7007081613
  0
ARC
  5
1A5
330
1F
100
AcDbEntity
  8
0
  6
Continuous
 62
     7
370
    25
100
AcDbCircle
 10
4.3784658343
 20
7.3632401564
 30
0.0
 40
0.1039155049084441
100
AcDbArc
 50
254.394090061
 51
339.1359224683
  0
ARC
  5
1A6
330
1F
100
AcDbEntity
  8
0
  6
Continuous
 62
     7
370
    25
100
AcDbCircle
 10
4.7187381662
 20
8.322452555
 30
0.0
 40
0.0884918398011689
100
AcDbArc
 50
342.4153029379
 51
77.7007081613
  0
ARC
  5
1A7
330
1F
100
AcDbEntity
  8
0
  6
Continuous
 62
     7
370
    25
100
AcDbCircle
 10
2.9041207428
 20
7.8097059513
 30
0.0
 40
2.502687837606692
100
AcDbArc
 50
358.1150582883
 51
48.8887859948
  0
ARC
  5
1A8
330
1F
100
AcDbEntity
  8
0
  6
Continuous
 62
     7
370
    25
100
AcDbCircle
 10
-1.9376231432
 20
-0.0453166253
 30
0.0
 40
0.0875527807492379
100
AcDbArc
 50
304.0033573195
 51
40.0368390653
  0
ARC
  5
1A9
330
1F
100
AcDbEntity
  8
0
  6
Continuous
 62
     7
370
    25
100
AcDbCircle
 10
-2.2070308004
 20
0.8203129022
 30
0.0
 40
0.2717206875231409
100
AcDbArc
 50
104.0493420367
 51
218.6170423838
  0
ARC
  5
1AA
330
1F
100
AcDbEntity
  8
0
  6
Continuous
 62
     7
370
    25
100
AcDbCircle
 10
-1.4405416755
 20
1.4436524409
 30
0.0
 40
0.0926151666967601
100
AcDbArc
 50
284.8299460392
 51
16.9909695162
  0
ARC
  5
1AB
330
1F
100
AcDbEntity
  8
0
  6
Continuous
 62
     7
370
    25
100
AcDbCircle
 10
-1.9935498507
 20
3.0163340508
 30
0.0
 40
0.0956717388974674
100
AcDbArc
 50
20.9233210807
 51
88.8888741825
  0
ARC
  5
1AC
330
1F
100
AcDbEntity
  8
0
  6
Continuous
 62
     7
370
    25
100
AcDbCircle
 10
-3.3942912631
 20
-1.0861427875
 30
0.0
 40
0.1074927799504476
100
AcDbArc
 50
243.3886369398
 51
306.0318702746
  0
ARC
  5
1AD
330
1F
100
AcDbEntity
  8
0
  6
Continuous
 62
     7
370
    25
100
AcDbCircle
 10
3.3175416192
 20
1.6068190021
 30
0.0
 40
0.1074927799504449
100
AcDbArc
 50
63.3886369398
 51
126.0318702746
  0
ARC
  5
1AE
330
1F
100
AcDbEntity
  8
0
  6
Continuous
 62
     7
370
    25
100
AcDbCircle
 10
1.8608734994
 20
0.5659928399
 30
0.0
 40
0.0875527807492386
100
AcDbArc
 50
124.0033573195
 51
220.0368390653
  0
ARC
  5
1AF
330
1F
100
AcDbEntity
  8
0
  6
Continuous
 62
     7
370
    25
100
AcDbCircle
 10
2.1302811565
 20
-0.2996366876
 30
0.0
 40
0.2717206875231412
100
AcDbArc
 50
284.0493420367
 51
38.6170423838
  0
ARC
  5
1B0
330
1F
100
AcDbEntity
  8
0
  6
Continuous
 62
     7
370
    25
100
AcDbCircle
 10
1.3637920316
 20
-0.9229762263
 30
0.0
 40
0.0926151666967601
100
AcDbArc
 50
104.8299460392
 51
196.9909695162
  0
ARC
  5
1B1
330
1F
100
AcDbEntity
  8
0
  6
Continuous
 62
     7
370
    25
100
AcDbCircle
 10
1.9168002068
 20
-2.4956578362
 30
0.0
 40
0.0956717388974731
100
AcDbArc
 50
200.9233210807
 51
268.8888741825
  0
ARC
  5
1B2
330
1F
100
AcDbEntity
  8
0
  6
Continuous
 62
     7
370
    25
100
AcDbCircle
 10
2.3985342689
 20
-0.392571682
 30
0.0
 40
2.223881068717251
100
AcDbArc
 50
10.4527943843
 51
63.7982679761
  0
ARC
  5
1B3
330
1F
100
AcDbEntity
  8
0
  6
Continuous
 62
     7
370
    25
100
AcDbCircle
 10
1.3829911458
 20
-1.0284966197
 30
0.0
 40
0.0990051113143404
100
AcDbArc
 50
106.5154186709
 51
159.2712915406
  0
ARC
  5
1B4
330
1F
100
AcDbEntity
  8
0
  6
Continuous
 62
     7
370
    25
100
AcDbCircle
 10
2.1389789463
 20
-0.3928071426
 30
0.0
 40
0.2799749970513853
100
AcDbArc
 50
284.9070335887
 51
6.7497989722
  0
ARC
  5
1B5
330
1F
100
AcDbEntity
  8
0
  6
Continuous
 62
     7
370
    25
100
AcDbCircle
 10
2.1220426243
 20
-0.4160110282
 30
0.0
 40
0.1044931333826175
100
AcDbArc
 50
45.5337283773
 51
151.2367346379
  0
ARC
  5
1B6
330
1F
100
AcDbEntity
  8
0
  6
Continuous
 62
     7
370
    25
100
AcDbCircle
 10
1.8831513871
 20
0.4602903012
 30
0.0
 40
0.0964273470381025
100
AcDbArc
 50
125.8553826361
 51
152.3121265271
  0
ARC
  5
1B7
330
1F
100
AcDbEntity
  8
0
  6
Continuous
 62
     7
370
    25
100
AcDbCircle
 10
-2.2111106594
 20
0.7181712336
 30
0.0
 40
0.2559480949133142
100
AcDbArc
 50
188.5052010997
 51
220.8978849291
  0
ARC
  5
1B8
330
1F
100
AcDbEntity
  8
0
  6
Continuous
 62
     7
370
    25
100
AcDbCircle
 10
-2.1656287534
 20
0.7117030931
 30
0.0
 40
0.1044931333826195
100
AcDbArc
 50
45.5337283773
 51
151.2367346379
  0
ARC
  5
1B9
330
1F
100
AcDbEntity
  8
0
  6
Continuous
 62
     7
370
    25
100
AcDbCircle
 10
3.3323011661
 20
1.5066889608
 30
0.0
 40
0.1074927799504431
100
AcDbArc
 50
63.3886369398
 51
126.0318702746
  0
ARC
  5
1BA
330
1F
100
AcDbEntity
  8
0
  6
Continuous
 62
     7
370
    25
100
AcDbCircle
 10
2.2617800721
 20
1.5330920396
 30
0.0
 40
0.1044931333826148
100
AcDbArc
 50
45.5337283772
 51
151.236734638
  0
ARC
  5
1BB
330
1F
100
AcDbEntity
  8
0
  6
Continuous
 62
     7
370
    25
100
AcDbCircle
 10
-1.0730754439
 20
2.4102030229
 30
0.0
 40
0.1044931333826155
100
AcDbArc
 50
45.5337283772
 51
151.236734638
  0
ARC
  5
1BC
330
1F
100
AcDbEntity
  8
0
  6
Continuous
 62
     7
370
    25
100
AcDbCircle
 10
2.8572846517
 20
3.2957963989
 30
0.0
 40
0.1044931333826162
100
AcDbArc
 50
45.5337283772
 51
151.2367346379
  0
ARC
  5
1BD
330
1F
100
AcDbEntity
  8
0
  6
Continuous
 62
     7
370
    25
100
AcDbCircle
 10
-1.9787903038
 20
2.9162040095
 30
0.0
 40
0.095671738897471
100
AcDbArc
 50
20.9233210807
 51
88.8888741825
  0
ARC
  5
1BE
330
1F
100
AcDbEntity
  8
0
  6
Continuous
 62
     7
370
    25
100
AcDbCircle
 10
-0.4775708643
 20
4.1729073822
 30
0.0
 40
0.1044931333826141
100
AcDbArc
 50
45.5337283772
 51
151.236734638
  0
ARC
  5
1BF
330
1F
100
AcDbEntity
  8
0
  6
Continuous
 62
     7
370
    25
100
AcDbCircle
 10
2.2489229545
 20
7.443579385
 30
0.0
 40
1.148768747639238
100
AcDbArc
 50
161.2022523804
 51
185.7345923847
  0
ARC
  5
1C0
330
1F
100
AcDbEntity
  8
0
  6
Continuous
 62
     7
370
    25
100
AcDbCircle
 10
3.015214735
 20
6.0686692246
 30
0.0
 40
0.0935017050452008
100
AcDbArc
 50
47.725414426
 51
159.3623870635
  0
ARC
  5
1C1
330
1F
100
AcDbEntity
  8
0
  6
Continuous
 62
     7
370
    25
100
AcDbCircle
 10
3.9113939432
 20
7.0314755056
 30
0.0
 40
0.0943595200805081
100
AcDbArc
 50
49.608894229
 51
147.1615687862
  0
ARC
  5
1C2
330
1F
100
AcDbEntity
  8
0
  6
Continuous
 62
     7
370
    25
100
AcDbCircle
 10
1.1095830116
 20
6.5698755007
 30
0.0
 40
0.0935017050452041
100
AcDbArc
 50
47.725414426
 51
159.3623870635
  0
ARC
  5
1C3
330
1F
100
AcDbEntity
  8
0
  6
Continuous
 62
     7
370
    25
100
AcDbCircle
 10
2.9753601057
 20
7.7208847076
 30
0.0
 40
2.446645952834034
100
AcDbArc
 50
357.8068643872
 51
8.3809172883
  0
ARC
  5
1C4
330
1F
100
AcDbEntity
  8
0
  6
Continuous
 62
     7
370
    25
100
AcDbCircle
 10
4.7281129045
 20
8.2140746723
 30
0.0
 40
0.097760267990799
100
AcDbArc
 50
43.9877497548
 51
75.6464660026
  0
ARC
  5
1C5
330
1F
100
AcDbEntity
  8
0
  6
Continuous
 62
     7
370
    25
100
AcDbCircle
 10
0.9576647719
 20
7.8083452336
 30
0.0
 40
0.0943595200804891
100
AcDbArc
 50
49.6088942289
 51
147.1615687863
  0
ARC
  5
1C6
330
1F
100
AcDbEntity
  8
0
  6
Continuous
 62
     7
370
    25
100
AcDbCircle
 10
4.4473480649
 20
8.6179094289
 30
0.0
 40
0.0943595200805014
100
AcDbArc
 50
49.608894229
 51
147.1615687862
  0
ARC
  5
1C7
330
1F
100
AcDbEntity
  8
0
  6
Continuous
 62
     7
370
    25
100
AcDbCircle
 10
1.008410972
 20
9.1860509043
 30
0.0
 40
0.1039155049084475
100
AcDbArc
 50
74.394090061
 51
159.1359224683
  0
ARC
  5
1C8
330
1F
100
AcDbEntity
  8
0
  6
Continuous
 62
     7
370
    25
100
AcDbCircle
 10
1.4936188936
 20
9.394779157
 30
0.0
 40
0.0943595200805036
100
AcDbArc
 50
49.608894229
 51
147.1615687862
  0
ARC
  5
1C9
330
1F
100
AcDbEntity
  8
0
  6
HIDDEN
 62
     7
370
    18
100
AcDbCircle
 10
1.9315597537
 20
-2.5957878775
 30
0.0
 40
0.0956717388974639
100
AcDbArc
 50
200.9233210807
 51
268.8888741825
  0
ARC
  5
1CA
330
1F
100
AcDbEntity
  8
0
  6
HIDDEN
 62
     7
370
    18
100
AcDbCircle
 10
-2.5552632987
 20
0.6511148358
 30
0.0
 40
2.605741995914387
100
AcDbArc
 50
144.9133021763
 51
188.0418486243
  0
ARC
  5
1CB
330
1F
100
AcDbEntity
  8
0
  6
HIDDEN
 62
     7
370
    18
100
AcDbCircle
 10
1.3700610471
 20
-1.0223981927
 30
0.0
 40
0.0847610150684724
100
AcDbArc
 50
160.0332196426
 51
199.126361305
  0
ARC
  5
1CC
330
1F
100
AcDbEntity
  8
0
  6
HIDDEN
 62
     7
370
    18
100
AcDbCircle
 10
2.1638801093
 20
-0.3977551015
 30
0.0
 40
0.2559480949133078
100
AcDbArc
 50
8.5052010997
 51
40.8978849291
  0
ARC
  5
1CD
330
1F
100
AcDbEntity
  8
0
  6
HIDDEN
 62
     7
370
    18
100
AcDbCircle
 10
2.1088726403
 20
-0.4057044946
 30
0.0
 40
0.0880300458778934
100
AcDbArc
 50
152.9927720452
 51
257.9168247057
  0
ARC
  5
1CE
330
1F
100
AcDbEntity
  8
0
  6
HIDDEN
 62
     7
370
    18
100
AcDbCircle
 10
-3.3795317162
 20
-1.1862728288
 30
0.0
 40
0.1074927799504455
100
AcDbArc
 50
243.3886369398
 51
306.0318702746
  0
ARC
  5
1CF
330
1F
100
AcDbEntity
  8
0
  6
HIDDEN
 62
     7
370
    18
100
AcDbCircle
 10
-2.4517589631
 20
0.7068943099
 30
0.0
 40
2.215768720310228
100
AcDbArc
 50
187.7094588309
 51
243.8677679144
  0
ARC
  5
1D0
330
1F
100
AcDbEntity
  8
0
  6
HIDDEN
 62
     7
370
    18
100
AcDbCircle
 10
-1.9228635963
 20
-0.1454466665
 30
0.0
 40
0.0875527807492399
100
AcDbArc
 50
304.0033573195
 51
40.0368390653
  0
ARC
  5
1D1
330
1F
100
AcDbEntity
  8
0
  6
HIDDEN
 62
     7
370
    18
100
AcDbCircle
 10
1.8730881938
 20
0.465244856
 30
0.0
 40
0.085214802036187
100
AcDbArc
 50
152.118019348
 51
220.8194582067
  0
ARC
  5
1D2
330
1F
100
AcDbEntity
  8
0
  6
HIDDEN
 62
     7
370
    18
100
AcDbCircle
 10
-2.1862094964
 20
0.7132232747
 30
0.0
 40
0.2799749970513849
100
AcDbArc
 50
104.9070335887
 51
186.7497989722
  0
ARC
  5
1D3
330
1F
100
AcDbEntity
  8
0
  6
HIDDEN
 62
     7
370
    18
100
AcDbCircle
 10
-2.1787987374
 20
0.7220096268
 30
0.0
 40
0.0880300458778928
100
AcDbArc
 50
152.9927720451
 51
257.9168247057
  0
ARC
  5
1D4
330
1F
100
AcDbEntity
  8
0
  6
HIDDEN
 62
     7
370
    18
100
AcDbCircle
 10
2.2486100881
 20
1.5433985733
 30
0.0
 40
0.0880300458778933
100
AcDbArc
 50
152.9927720452
 51
257.9168247057
  0
ARC
  5
1D5
330
1F
100
AcDbEntity
  8
0
  6
HIDDEN
 62
     7
370
    18
100
AcDbCircle
 10
-1.4257821286
 20
1.3435223996
 30
0.0
 40
0.09261516669676
100
AcDbArc
 50
284.8299460392
 51
16.9909695162
  0
ARC
  5
1D6
330
1F
100
AcDbEntity
  8
0
  6
HIDDEN
 62
     7
370
    18
100
AcDbCircle
 10
-1.0862454279
 20
2.4205095566
 30
0.0
 40
0.0880300458778942
100
AcDbArc
 50
152.9927720452
 51
257.9168247057
  0
ARC
  5
1D7
330
1F
100
AcDbEntity
  8
0
  6
HIDDEN
 62
     7
370
    18
100
AcDbCircle
 10
2.8441146677
 20
3.3061029326
 30
0.0
 40
0.0880300458778946
100
AcDbArc
 50
152.9927720452
 51
257.9168247057
  0
ARC
  5
1D8
330
1F
100
AcDbEntity
  8
0
  6
HIDDEN
 62
     7
370
    18
100
AcDbCircle
 10
-0.4907408483
 20
4.1832139159
 30
0.0
 40
0.0880300458778936
100
AcDbArc
 50
152.9927720452
 51
257.9168247057
  0
ARC
  5
1D9
330
1F
100
AcDbEntity
  8
0
  6
HIDDEN
 62
     7
370
    18
100
AcDbCircle
 10
3.026601424
 20
6.0810784206
 30
0.0
 40
0.0766601660790447
100
AcDbArc
 50
341.3124093665
 51
47.7836184799
  0
ARC
  5
1DA
330
1F
100
AcDbEntity
  8
0
  6
HIDDEN
 62
     7
370
    18
100
AcDbCircle
 10
3.899429572
 20
7.0410131617
 30
0.0
 40
0.0791497205217629
100
AcDbArc
 50
148.2660240008
 51
257.9515774164
  0
ARC
  5
1DB
330
1F
100
AcDbEntity
  8
0
  6
HIDDEN
 62
     7
370
    18
100
AcDbCircle
 10
1.1209697006
 20
6.5822846968
 30
0.0
 40
0.0766601660790461
100
AcDbArc
 50
341.3124093665
 51
47.7836184799
  0
ARC
  5
1DC
330
1F
100
AcDbEntity
  8
0
  6
HIDDEN
 62
     7
370
    18
100
AcDbCircle
 10
4.3932253812
 20
7.2631101151
 30
0.0
 40
0.1039155049084462
100
AcDbArc
 50
254.394090061
 51
339.1359224683
  0
ARC
  5
1DD
330
1F
100
AcDbEntity
  8
0
  6
HIDDEN
 62
     7
370
    18
100
AcDbCircle
 10
2.8991894427
 20
7.696339671
 30
0.0
 40
2.525615104485235
100
AcDbArc
 50
8.679936011
 51
48.7496615801
  0
ARC
  5
1DE
330
1F
100
AcDbEntity
  8
0
  6
HIDDEN
 62
     7
370
    18
100
AcDbCircle
 10
4.7371391887
 20
8.2228268262
 30
0.0
 40
0.0851875560086509
100
AcDbArc
 50
341.3519592821
 51
43.9687311055
  0
ARC
  5
1DF
330
1F
100
AcDbEntity
  8
0
  6
HIDDEN
 62
     7
370
    18
100
AcDbCircle
 10
0.9457004007
 20
7.8178828898
 30
0.0
 40
0.0791497205217623
100
AcDbArc
 50
148.2660240009
 51
257.9515774164
  0
ARC
  5
1E0
330
1F
100
AcDbEntity
  8
0
  6
HIDDEN
 62
     7
370
    18
100
AcDbCircle
 10
4.4353836936
 20
8.6274470851
 30
0.0
 40
0.0791497205217601
100
AcDbArc
 50
148.2660240008
 51
257.9515774164
  0
ARC
  5
1E1
330
1F
100
AcDbEntity
  8
0
  6
HIDDEN
 62
     7
370
    18
100
AcDbCircle
 10
0.6681386401
 20
8.2268385056
 30
0.0
 40
0.088491839801166
100
AcDbArc
 50
162.4153029379
 51
257.7007081613
  0
ARC
  5
1E2
330
1F
100
AcDbEntity
  8
0
  6
HIDDEN
 62
     7
370
    18
100
AcDbCircle
 10
2.5270590187
 20
7.292990268
 30
0.0
 40
3.026524644078822
100
AcDbArc
 50
100.1856913749
 51
144.7789406416
  0
ARC
  5
1E3
330
1F
100
AcDbEntity
  8
0
  6
HIDDEN
 62
     7
370
    18
100
AcDbCircle
 10
1.4816545223
 20
9.4043168131
 30
0.0
 40
0.0791497205217619
100
AcDbArc
 50
148.2660240008
 51
257.9515774164
  0
MTEXT
  5
1E5
330
1F
100
AcDbEntity
  8
0
  6
Continuous
 62
     7
100
AcDbMText
 10
-5.1769776537
 20
-3.1918996555
 30
0.0
 40
0.1903
 41
0.0
 71
     1
 72
     1
  1
SOLIDWORKS Educational Product.
  7
SLDTEXTSTYLE0
 73
     1
 44
1.0
  0
MTEXT
  5
1E6
330
1F
100
AcDbEntity
  8
0
  6
Continuous
 62
     7
100
AcDbMText
 10
-5.1769776537
 20
-3.4773496555
 30
0.0
 40
0.1903
 41
0.0
 71
     1
 72
     1
  1
For Instructional Use Only.
  7
SLDTEXTSTYLE0
 73
     1
 44
1.0
  0
ENDSEC
  0
SECTION
  2
OBJECTS
  0
DICTIONARY
  5
C
330
0
100
AcDbDictionary
281
     1
  3
ACAD_GROUP
350
D
  3
ACAD_LAYOUT
350
1A
  3
ACAD_MLINESTYLE
350
17
  3
ACAD_PLOTSETTINGS
350
19
  3
ACAD_PLOTSTYLENAME
350
E
  3
ACAD_SCALELIST
350
47
  3
DWGPROPS
350
1E7
  0
DICTIONARY
  5
D
102
{ACAD_REACTORS
330
C
102
}
330
C
100
AcDbDictionary
281
     1
  0
DICTIONARY
  5
1A
102
{ACAD_REACTORS
330
C
102
}
330
C
100
AcDbDictionary
281
     1
  3
Layout1
350
1E
  3
Layout2
350
26
  3
Model
350
22
  0
DICTIONARY
  5
17
102
{ACAD_REACTORS
330
C
102
}
330
C
100
AcDbDictionary
281
     1
  3
Standard
350
18
  0
DICTIONARY
  5
19
102
{ACAD_REACTORS
330
C
102
}
330
C
100
AcDbDictionary
281
     1
  0
ACDBDICTIONARYWDFLT
  5
E
102
{ACAD_REACTORS
330
C
102
}
330
C
100
AcDbDictionary
281
     1
  3
Normal
350
F
100
AcDbDictionaryWithDefault
340
F
  0
DICTIONARY
  5
47
102
{ACAD_REACTORS
330
C
102
}
330
C
100
AcDbDictionary
281
     1
  3
A0
350
48
  3
A1
350
49
  3
A2
350
4A
  3
A3
350
4B
  3
A4
350
4C
  3
A5
350
4D
  3
A6
350
4E
  3
A7
350
4F
  3
A8
350
50
  3
A9
350
51
  3
B1
350
52
  3
B2
350
53
  3
B3
350
54
  3
B4
350
55
  3
B5
350
56
  3
B6
350
57
  3
B7
350
58
  0
XRECORD
  5
1E7
102
{ACAD_REACTORS
330
C
102
}
330
C
100
AcDbXrecord
280
     1
  1
DWGPROPS COOKIE
  2

  3

  4

  6

  7

  8
Darren Au
  9

300
=
301
=
302
=
303
=
304
=
305
=
306
=
307
=
308
=
309
=
 40
0.0
 41
2460416.775302963
 42
2460416.775367187
  1

 90
        0
  0
LAYOUT
  5
1E
102
{ACAD_REACTORS
330
1A
102
}
330
1A
100
AcDbPlotSettings
  1

  2
none_device
  4

  6

 40
0.0
 41
0.0
 42
0.0
 43
0.0
 44
0.0
 45
0.0
 46
0.0
 47
0.0
 48
0.0
 49
0.0
140
0.0
141
0.0
142
1.0
143
1.0
 70
   688
 72
     0
 73
     0
 74
     5
  7

 75
    16
147
1.0
148
0.0
149
0.0
100
AcDbLayout
  1
Layout1
 70
     1
 71
     1
 10
0.0
 20
0.0
 11
12.0
 21
9.0
 12
0.0
 22
0.0
 32
0.0
 14
1.0000000000E+20
 24
1.0000000000E+20
 34
1.0000000000E+20
 15
-1.0000000000E+20
 25
-1.0000000000E+20
 35
-1.0000000000E+20
146
0.0
 13
0.0
 23
0.0
 33
0.0
 16
1.0
 26
0.0
 36
0.0
 17
0.0
 27
1.0
 37
0.0
 76
     0
330
1B
  0
LAYOUT
  5
26
102
{ACAD_REACTORS
330
1A
102
}
330
1A
100
AcDbPlotSettings
  1

  2
none_device
  4

  6

 40
0.0
 41
0.0
 42
0.0
 43
0.0
 44
0.0
 45
0.0
 46
0.0
 47
0.0
 48
0.0
 49
0.0
140
0.0
141
0.0
142
1.0
143
1.0
 70
   688
 72
     0
 73
     0
 74
     5
  7

 75
    16
147
1.0
148
0.0
149
0.0
100
AcDbLayout
  1
Layout2
 70
     1
 71
     2
 10
0.0
 20
0.0
 11
0.0
 21
0.0
 12
0.0
 22
0.0
 32
0.0
 14
0.0
 24
0.0
 34
0.0
 15
0.0
 25
0.0
 35
0.0
146
0.0
 13
0.0
 23
0.0
 33
0.0
 16
1.0
 26
0.0
 36
0.0
 17
0.0
 27
1.0
 37
0.0
 76
     0
330
23
  0
LAYOUT
  5
22
102
{ACAD_REACTORS
330
1A
102
}
330
1A
100
AcDbPlotSettings
  1

  2
none_device
  4
ANSI_A_(11.00_x_8.50_Inches)
  6

 40
6.35
 41
19.05
 42
6.35000508
 43
19.05000254
 44
279.4
 45
215.9
 46
131.4136710586
 47
31.8427817556
 48
0.0
 49
0.0
140
0.0
141
0.0
142
0.6222406985
143
1.0
 70
  1696
 72
     0
 73
     0
 74
     0
  7

 75
     0
147
0.5913241897
148
-39.4088153714
149
0.0
100
AcDbLayout
  1
Model
 70
     1
 71
     0
 10
0.0
 20
0.0
 11
12.0
 21
9.0
 12
0.0
 22
0.0
 32
0.0
 14
-5.1769776537
 24
-3.1517592464
 34
0.0
 15
5.4220060585
 25
10.3719463231
 35
0.0
146
0.0
 13
0.0
 23
0.0
 33
0.0
 16
1.0
 26
0.0
 36
0.0
 17
0.0
 27
1.0
 37
0.0
 76
     0
330
1F
331
29
  0
MLINESTYLE
  5
18
102
{ACAD_REACTORS
330
17
102
}
330
17
100
AcDbMlineStyle
  2
Standard
 70
     0
  3

 62
   256
 51
90.0
 52
90.0
 71
     2
 49
0.5
 62
   256
  6
BYLAYER
 49
-0.5
 62
   256
  6
BYLAYER
  0
ACDBPLACEHOLDER
  5
F
102
{ACAD_REACTORS
330
E
102
}
330
E
  0
SCALE
  5
48
102
{ACAD_REACTORS
330
47
102
}
330
47
100
AcDbScale
 70
     0
300
1:1
140
1.0
141
1.0
290
     1
  0
SCALE
  5
49
102
{ACAD_REACTORS
330
47
102
}
330
47
100
AcDbScale
 70
     0
300
1/128" = 1'-0"
140
0.0078125
141
12.0
290
     0
  0
SCALE
  5
4A
102
{ACAD_REACTORS
330
47
102
}
330
47
100
AcDbScale
 70
     0
300
1/64" = 1'-0"
140
0.015625
141
12.0
290
     0
  0
SCALE
  5
4B
102
{ACAD_REACTORS
330
47
102
}
330
47
100
AcDbScale
 70
     0
300
1/32" = 1'-0"
140
0.03125
141
12.0
290
     0
  0
SCALE
  5
4C
102
{ACAD_REACTORS
330
47
102
}
330
47
100
AcDbScale
 70
     0
300
1/16" = 1'-0"
140
0.0625
141
12.0
290
     0
  0
SCALE
  5
4D
102
{ACAD_REACTORS
330
47
102
}
330
47
100
AcDbScale
 70
     0
300
3/32" = 1'-0"
140
0.09375
141
12.0
290
     0
  0
SCALE
  5
4E
102
{ACAD_REACTORS
330
47
102
}
330
47
100
AcDbScale
 70
     0
300
1/8" = 1'-0"
140
0.125
141
12.0
290
     0
  0
SCALE
  5
4F
102
{ACAD_REACTORS
330
47
102
}
330
47
100
AcDbScale
 70
     0
300
3/16" = 1'-0"
140
0.1875
141
12.0
290
     0
  0
SCALE
  5
50
102
{ACAD_REACTORS
330
47
102
}
330
47
100
AcDbScale
 70
     0
300
1/4" = 1'-0"
140
0.25
141
12.0
290
     0
  0
SCALE
  5
51
102
{ACAD_REACTORS
330
47
102
}
330
47
100
AcDbScale
 70
     0
300
3/8" = 1'-0"
140
0.375
141
12.0
290
     0
  0
SCALE
  5
52
102
{ACAD_REACTORS
330
47
102
}
330
47
100
AcDbScale
 70
     0
300
1/2" = 1'-0"
140
0.5
141
12.0
290
     0
  0
SCALE
  5
53
102
{ACAD_REACTORS
330
47
102
}
330
47
100
AcDbScale
 70
     0
300
3/4" = 1'-0"
140
0.75
141
12.0
290
     0
  0
SCALE
  5
54
102
{ACAD_REACTORS
330
47
102
}
330
47
100
AcDbScale
 70
     0
300
1" = 1'-0"
140
1.0
141
12.0
290
     0
  0
SCALE
  5
55
102
{ACAD_REACTORS
330
47
102
}
330
47
100
AcDbScale
 70
     0
300
1-1/2" = 1'-0"
140
1.5
141
12.0
290
     0
  0
SCALE
  5
56
102
{ACAD_REACTORS
330
47
102
}
330
47
100
AcDbScale
 70
     0
300
3" = 1'-0"
140
3.0
141
12.0
290
     0
  0
SCALE
  5
57
102
{ACAD_REACTORS
330
47
102
}
330
47
100
AcDbScale
 70
     0
300
6" = 1'-0"
140
6.0
141
12.0
290
     0
  0
SCALE
  5
58
102
{ACAD_REACTORS
330
47
102
}
330
47
100
AcDbScale
 70
     0
300
1'-0" = 1'-0"
140
12.0
141
12.0
290
     0
  0
ENDSEC
  0
EOF
